<?xml version="1.0" encoding="UTF-8" standalone="no"?>
<!-- Created with Inkscape (http://www.inkscape.org/) -->
<svg
   xmlns:dc="http://purl.org/dc/elements/1.1/"
   xmlns:cc="http://web.resource.org/cc/"
   xmlns:rdf="http://www.w3.org/1999/02/22-rdf-syntax-ns#"
   xmlns:svg="http://www.w3.org/2000/svg"
   xmlns="http://www.w3.org/2000/svg"
   xmlns:xlink="http://www.w3.org/1999/xlink"
   xmlns:sodipodi="http://sodipodi.sourceforge.net/DTD/sodipodi-0.dtd"
   xmlns:inkscape="http://www.inkscape.org/namespaces/inkscape"
   width="36"
   height="36"
   id="svg5416"
   sodipodi:version="0.32"
   inkscape:version="0.45.1"
   version="1.0"
   sodipodi:docbase="/home/mclasen/Desktop/intlclock-1.0/pixmaps"
   sodipodi:docname="intlclock-face-dark-small.svg"
   inkscape:output_extension="org.inkscape.output.svg.inkscape">
  <defs
     id="defs5418">
    <linearGradient
       id="linearGradient10653">
      <stop
         id="stop10655"
         offset="0.0000000"
         style="stop-color:#f3f4ff;stop-opacity:1.0000000;" />
      <stop
         id="stop10657"
         offset="1.0000000"
         style="stop-color:#9193af;stop-opacity:1.0000000;" />
    </linearGradient>
    <linearGradient
       id="linearGradient42174">
      <stop
         id="stop42176"
         offset="0.0000000"
         style="stop-color:#a0a0a0;stop-opacity:1.0000000;" />
      <stop
         id="stop42178"
         offset="1.0000000"
         style="stop-color:#ffffff;stop-opacity:1.0000000;" />
    </linearGradient>
    <linearGradient
       id="linearGradient2145">
      <stop
         id="stop2147"
         offset="0.0000000"
         style="stop-color:#fffffd;stop-opacity:1.0000000;" />
      <stop
         id="stop2149"
         offset="1"
         style="stop-color:#d9d9d8;stop-opacity:1;" />
    </linearGradient>
    <linearGradient
       id="linearGradient37935">
      <stop
         style="stop-color:#27293c;stop-opacity:1;"
         offset="0"
         id="stop37937" />
      <stop
         style="stop-color:#d6cae3;stop-opacity:1;"
         offset="1"
         id="stop37939" />
    </linearGradient>
    <linearGradient
       id="linearGradient3816"
       inkscape:collect="always">
      <stop
         id="stop3818"
         offset="0"
         style="stop-color:#000000;stop-opacity:1;" />
      <stop
         id="stop3820"
         offset="1"
         style="stop-color:#000000;stop-opacity:0;" />
    </linearGradient>
    <radialGradient
       inkscape:collect="always"
       xlink:href="#linearGradient3816"
       id="radialGradient5847"
       gradientUnits="userSpaceOnUse"
       cx="31.112698"
       cy="19.008621"
       fx="31.112698"
       fy="19.008621"
       r="8.6620579" />
    <radialGradient
       inkscape:collect="always"
       xlink:href="#linearGradient37935"
       id="radialGradient5849"
       gradientUnits="userSpaceOnUse"
       cx="8.7468252"
       cy="6.8283234"
       fx="8.7468252"
       fy="6.8283234"
       r="29.889715" />
    <radialGradient
       inkscape:collect="always"
       xlink:href="#linearGradient2145"
       id="radialGradient5851"
       gradientUnits="userSpaceOnUse"
       cx="11.901996"
       cy="10.045444"
       fx="11.901996"
       fy="10.045444"
       r="29.292715" />
    <linearGradient
       inkscape:collect="always"
       xlink:href="#linearGradient42174"
       id="linearGradient5853"
       gradientUnits="userSpaceOnUse"
       x1="6.342216"
       y1="7.7893324"
       x2="22.218424"
       y2="25.884274" />
    <radialGradient
       inkscape:collect="always"
       xlink:href="#linearGradient10653"
       id="radialGradient5855"
       gradientUnits="userSpaceOnUse"
       cx="11.3292"
       cy="10.58397"
       fx="11.3292"
       fy="10.58397"
       r="15.532059" />
    <linearGradient
       inkscape:collect="always"
       xlink:href="#linearGradient10653"
       id="linearGradient5859"
       gradientUnits="userSpaceOnUse"
       x1="6.342216"
       y1="7.7893324"
       x2="22.218424"
       y2="25.884274" />
  </defs>
  <sodipodi:namedview
     id="base"
     pagecolor="#ffffff"
     bordercolor="#666666"
     borderopacity="1.0"
     inkscape:pageopacity="0.0"
     inkscape:pageshadow="2"
     inkscape:zoom="26.388889"
     inkscape:cx="18"
     inkscape:cy="18"
     inkscape:document-units="px"
     inkscape:current-layer="layer1"
     inkscape:window-width="1600"
     inkscape:window-height="1115"
     inkscape:window-x="0"
     inkscape:window-y="31"
     width="36px"
     height="36px"
     showguides="true"
     inkscape:guide-bbox="true" />
  <metadata
     id="metadata5421">
    <rdf:RDF>
      <cc:Work
         rdf:about="">
        <dc:format>image/svg+xml</dc:format>
        <dc:type
           rdf:resource="http://purl.org/dc/dcmitype/StillImage" />
      </cc:Work>
    </rdf:RDF>
  </metadata>
  <g
     inkscape:label="Layer 1"
     inkscape:groupmode="layer"
     id="layer1"
     style="display:inline">
    <path
       d="M 39.774755,19.008621 A 8.6620579,8.6620579 0 1 1 22.45064,19.008621 A 8.6620579,8.6620579 0 1 1 39.774755,19.008621 z"
       sodipodi:ry="8.6620579"
       sodipodi:rx="8.6620579"
       sodipodi:cy="19.008621"
       sodipodi:cx="31.112698"
       id="path4415"
       style="color:#000000;fill:url(#radialGradient5847);fill-opacity:1;fill-rule:evenodd;stroke:none;stroke-width:1px;stroke-linecap:round;stroke-linejoin:round;marker:none;marker-start:none;marker-mid:none;marker-end:none;stroke-miterlimit:4;stroke-dasharray:none;stroke-dashoffset:0;stroke-opacity:1;visibility:visible;display:inline;overflow:visible"
       sodipodi:type="arc"
       transform="matrix(1.6624224,0,0,0.7910143,-33.728278,14.112097)" />
    <path
       transform="matrix(1.1148631,0,0,1.1148631,-0.1165205,-0.8531387)"
       d="M 31.160714,16.910715 A 14.910714,14.910714 0 1 1 1.3392859,16.910715 A 14.910714,14.910714 0 1 1 31.160714,16.910715 z"
       sodipodi:ry="14.910714"
       sodipodi:rx="14.910714"
       sodipodi:cy="16.910715"
       sodipodi:cx="16.25"
       id="path4417"
       style="fill:url(#radialGradient5849);fill-opacity:1.0;fill-rule:evenodd;stroke:#605773;stroke-width:1.6359601;stroke-linecap:round;stroke-linejoin:round;stroke-miterlimit:4;stroke-dashoffset:0;stroke-opacity:1"
       sodipodi:type="arc" />
    <path
       transform="matrix(0.9318866,0,0,0.9318866,2.7831211,2.1674291)"
       d="M 31.160714,16.910715 A 14.910714,14.910714 0 1 1 1.3392859,16.910715 A 14.910714,14.910714 0 1 1 31.160714,16.910715 z"
       sodipodi:ry="14.910714"
       sodipodi:rx="14.910714"
       sodipodi:cy="16.910715"
       sodipodi:cx="16.25"
       id="path4419"
       style="fill:url(#radialGradient5851);fill-opacity:1;fill-rule:evenodd;stroke:url(#linearGradient5853);stroke-width:1.6660347;stroke-linecap:round;stroke-linejoin:round;stroke-miterlimit:4;stroke-dashoffset:0;stroke-opacity:1"
       sodipodi:type="arc" />
    <path
       sodipodi:type="arc"
       style="fill:none;fill-opacity:1;fill-rule:evenodd;stroke:url(#radialGradient5855);stroke-width:1.72497916;stroke-linecap:round;stroke-linejoin:round;stroke-miterlimit:4;stroke-dashoffset:0;stroke-opacity:1"
       id="path4421"
       sodipodi:cx="16.25"
       sodipodi:cy="16.910715"
       sodipodi:rx="14.910714"
       sodipodi:ry="14.910714"
       d="M 31.160714,16.910715 A 14.910714,14.910714 0 1 1 1.3392859,16.910715 A 14.910714,14.910714 0 1 1 31.160714,16.910715 z"
       transform="matrix(1.0573301,0,0,1.0573301,0.8183498,5.0961231e-2)" />
    <path
       transform="matrix(0.9318866,0,0,0.9318866,2.7831211,2.1674291)"
       d="M 31.160714,16.910715 A 14.910714,14.910714 0 1 1 1.3392859,16.910715 A 14.910714,14.910714 0 1 1 31.160714,16.910715 z"
       sodipodi:ry="14.910714"
       sodipodi:rx="14.910714"
       sodipodi:cy="16.910715"
       sodipodi:cx="16.25"
       id="path4429"
       style="opacity:0.53921569;fill:#000000;fill-opacity:1;fill-rule:evenodd;stroke:url(#linearGradient5859);stroke-width:1.6660347;stroke-linecap:round;stroke-linejoin:round;stroke-miterlimit:4;stroke-dashoffset:0;stroke-opacity:1;display:inline"
       sodipodi:type="arc" />
    <path
       id="path5543"
       d="M 19,18 C 19,18.552 18.551999,19 18,19 C 17.448,19 17,18.552 17,18 C 17,17.448 17.448,17 18,17 C 18.551999,17 19,17.448 19,18 z"
       style="fill:#c3c9c9;fill-opacity:1;stroke:none;stroke-width:2;stroke-miterlimit:4;stroke-opacity:1" />
    <g
       id="g5802"
       style="fill:#eaece7;fill-opacity:1"
       transform="matrix(0.9954167,0,0,0.9954167,8.2499251e-2,8.2498405e-2)">
      <path
         style="fill:#eaece7;fill-opacity:1;stroke:none;stroke-width:2;stroke-miterlimit:4;stroke-opacity:1"
         d="M 7.9470493,18 C 7.9470493,18.414 7.6110484,18.75 7.1970493,18.75 C 6.7830492,18.75 6.4470493,18.414 6.4470493,18 C 6.4470493,17.586 6.7830492,17.25 7.1970493,17.25 C 7.6110484,17.25 7.9470493,17.586 7.9470493,18 z"
         id="path5545" />
      <path
         style="fill:#eaece7;fill-opacity:1;stroke:none;stroke-width:2;stroke-miterlimit:4;stroke-opacity:1"
         d="M 29.552951,18 C 29.552951,18.414 29.21695,18.75 28.802951,18.75 C 28.388951,18.75 28.052951,18.414 28.052951,18 C 28.052951,17.586 28.388951,17.25 28.802951,17.25 C 29.21695,17.25 29.552951,17.586 29.552951,18 z"
         id="path5557" />
      <path
         id="path5649"
         d="M 9.2938893,23.026476 C 9.5008893,23.38501 9.377904,23.843995 9.0193703,24.050995 C 8.6608357,24.257995 8.2018512,24.13501 7.9948512,23.776476 C 7.7878512,23.417941 7.9108357,22.958957 8.2693703,22.751956 C 8.627904,22.544957 9.0868893,22.667941 9.2938893,23.026476 z"
         style="fill:#eaece7;fill-opacity:1;stroke:none;stroke-width:2;stroke-miterlimit:4;stroke-opacity:1" />
      <path
         id="path5651"
         d="M 28.005149,12.223525 C 28.212149,12.582059 28.089164,13.041044 27.73063,13.248044 C 27.372095,13.455044 26.913111,13.332059 26.706111,12.973525 C 26.499111,12.61499 26.622095,12.156006 26.98063,11.949006 C 27.339164,11.742006 27.798149,11.86499 28.005149,12.223525 z"
         style="fill:#eaece7;fill-opacity:1;stroke:none;stroke-width:2;stroke-miterlimit:4;stroke-opacity:1" />
      <path
         style="fill:#eaece7;fill-opacity:1;stroke:none;stroke-width:2;stroke-miterlimit:4;stroke-opacity:1"
         d="M 12.973525,26.706111 C 13.332059,26.913111 13.455043,27.372097 13.248044,27.730631 C 13.041044,28.089165 12.582059,28.21215 12.223525,28.00515 C 11.86499,27.79815 11.742006,27.339165 11.949006,26.980631 C 12.156005,26.622097 12.61499,26.499111 12.973525,26.706111 z"
         id="path5655" />
      <path
         style="fill:#eaece7;fill-opacity:1;stroke:none;stroke-width:2;stroke-miterlimit:4;stroke-opacity:1"
         d="M 23.776476,7.9948518 C 24.13501,8.2018518 24.257994,8.6608372 24.050995,9.0193708 C 23.843995,9.3779054 23.38501,9.5008899 23.026476,9.2938899 C 22.667941,9.0868899 22.544956,8.6279054 22.751956,8.2693708 C 22.958956,7.9108372 23.417941,7.7878518 23.776476,7.9948518 z"
         id="path5657" />
      <path
         id="path5661"
         d="M 18,28.052952 C 18.414,28.052952 18.75,28.388953 18.75,28.802952 C 18.75,29.216952 18.414,29.552952 18,29.552952 C 17.586,29.552952 17.25,29.216952 17.25,28.802952 C 17.25,28.388953 17.586,28.052952 18,28.052952 z"
         style="fill:#eaece7;fill-opacity:1;stroke:none;stroke-width:2;stroke-miterlimit:4;stroke-opacity:1" />
      <path
         id="path5663"
         d="M 18,6.44705 C 18.414,6.44705 18.75,6.783051 18.75,7.19705 C 18.75,7.61105 18.414,7.94705 18,7.94705 C 17.586,7.94705 17.25,7.61105 17.25,7.19705 C 17.25,6.783051 17.586,6.44705 18,6.44705 z"
         style="fill:#eaece7;fill-opacity:1;stroke:none;stroke-width:2;stroke-miterlimit:4;stroke-opacity:1" />
      <path
         style="fill:#eaece7;fill-opacity:1;stroke:none;stroke-width:2;stroke-miterlimit:4;stroke-opacity:1"
         d="M 23.026476,26.706111 C 23.38501,26.499111 23.843995,26.622097 24.050995,26.980631 C 24.257995,27.339165 24.13501,27.79815 23.776476,28.00515 C 23.417941,28.21215 22.958957,28.089165 22.751956,27.730631 C 22.544957,27.372097 22.667941,26.913111 23.026476,26.706111 z"
         id="path5667" />
      <path
         style="fill:#eaece7;fill-opacity:1;stroke:none;stroke-width:2;stroke-miterlimit:4;stroke-opacity:1"
         d="M 12.223525,7.9948518 C 12.582059,7.7878518 13.041044,7.9108372 13.248044,8.2693708 C 13.455044,8.6279054 13.332059,9.0868899 12.973525,9.2938899 C 12.61499,9.5008899 12.156006,9.3779054 11.949006,9.0193708 C 11.742006,8.6608372 11.86499,8.2018518 12.223525,7.9948518 z"
         id="path5669" />
      <path
         id="path5673"
         d="M 26.706111,23.026476 C 26.913111,22.667942 27.372097,22.544958 27.730631,22.751957 C 28.089165,22.958957 28.21215,23.417942 28.00515,23.776476 C 27.79815,24.135011 27.339165,24.257995 26.980631,24.050995 C 26.622097,23.843996 26.499111,23.385011 26.706111,23.026476 z"
         style="fill:#eaece7;fill-opacity:1;stroke:none;stroke-width:2;stroke-miterlimit:4;stroke-opacity:1" />
      <path
         id="path5675"
         d="M 7.9948518,12.223525 C 8.2018518,11.864991 8.6608372,11.742007 9.0193708,11.949006 C 9.3779054,12.156006 9.5008899,12.614991 9.2938899,12.973525 C 9.0868899,13.33206 8.6279054,13.455044 8.2693708,13.248044 C 7.9108372,13.041045 7.7878518,12.58206 7.9948518,12.223525 z"
         style="fill:#eaece7;fill-opacity:1;stroke:none;stroke-width:2;stroke-miterlimit:4;stroke-opacity:1" />
    </g>
    <path
       sodipodi:type="arc"
       style="fill:#000000;fill-opacity:1;stroke:#000000;stroke-width:10.30000019;stroke-miterlimit:3.9000001;stroke-dasharray:none;stroke-dashoffset:0;stroke-opacity:1"
       id="path6095"
       sodipodi:cx="34.673683"
       sodipodi:cy="29.804211"
       sodipodi:rx="0"
       sodipodi:ry="2.103158"
       d="M 34.673683 29.804211 A 0 2.103158 0 1 1  34.673683,29.804211 A 0 2.103158 0 1 1  34.673683 29.804211 z" />
  </g>
</svg>
