<?xml version="1.0" encoding="UTF-8" standalone="no"?>
<!-- Created with Inkscape (http://www.inkscape.org/) -->
<svg
   xmlns:dc="http://purl.org/dc/elements/1.1/"
   xmlns:cc="http://web.resource.org/cc/"
   xmlns:rdf="http://www.w3.org/1999/02/22-rdf-syntax-ns#"
   xmlns:svg="http://www.w3.org/2000/svg"
   xmlns="http://www.w3.org/2000/svg"
   xmlns:xlink="http://www.w3.org/1999/xlink"
   xmlns:sodipodi="http://sodipodi.sourceforge.net/DTD/sodipodi-0.dtd"
   xmlns:inkscape="http://www.inkscape.org/namespaces/inkscape"
   width="16"
   height="16"
   id="svg2"
   sodipodi:version="0.32"
   inkscape:version="0.44"
   version="1.0"
   sodipodi:docbase="/home/lapo/Icone/mate-panel/16x16"
   sodipodi:docname="mate-panel-force-quit.svg"
   inkscape:output_extension="org.inkscape.output.svg.inkscape">
  <defs
     id="defs4">
    <linearGradient
       id="linearGradient4551">
      <stop
         style="stop-color:white;stop-opacity:1;"
         offset="0"
         id="stop4553" />
      <stop
         style="stop-color:white;stop-opacity:0.38095239;"
         offset="1"
         id="stop4555" />
    </linearGradient>
    <linearGradient
       id="linearGradient3654">
      <stop
         style="stop-color:#d3d7cf;stop-opacity:1"
         offset="0"
         id="stop3656" />
      <stop
         style="stop-color:#eeeeec;stop-opacity:1;"
         offset="1"
         id="stop3658" />
    </linearGradient>
    <linearGradient
       inkscape:collect="always"
       xlink:href="#linearGradient4551"
       id="linearGradient2840"
       gradientUnits="userSpaceOnUse"
       gradientTransform="translate(-1,-1)"
       x1="3.9999993"
       y1="6.8125"
       x2="3.9999993"
       y2="6.0000005" />
    <linearGradient
       inkscape:collect="always"
       xlink:href="#linearGradient3654"
       id="linearGradient2842"
       gradientUnits="userSpaceOnUse"
       gradientTransform="translate(-1,0)"
       x1="11.8125"
       y1="15.375"
       x2="11"
       y2="4" />
  </defs>
  <sodipodi:namedview
     id="base"
     pagecolor="#ffffff"
     bordercolor="#666666"
     borderopacity="1.0"
     inkscape:pageopacity="0.0"
     inkscape:pageshadow="2"
     inkscape:zoom="1"
     inkscape:cx="70.208057"
     inkscape:cy="-22.333101"
     inkscape:document-units="px"
     inkscape:current-layer="layer1"
     width="16px"
     height="16px"
     inkscape:showpageshadow="false"
     borderlayer="true"
     showgrid="false"
     gridspacingx="0.5px"
     gridspacingy="0.5px"
     gridempspacing="2"
     inkscape:window-width="1051"
     inkscape:window-height="622"
     inkscape:window-x="284"
     inkscape:window-y="321"
     showborder="false" />
  <metadata
     id="metadata7">
    <rdf:RDF>
      <cc:Work
         rdf:about="">
        <dc:format>image/svg+xml</dc:format>
        <dc:type
           rdf:resource="http://purl.org/dc/dcmitype/StillImage" />
        <dc:creator>
          <cc:Agent>
            <dc:title>Lapo Calamandrei</dc:title>
          </cc:Agent>
        </dc:creator>
        <cc:license
           rdf:resource="http://creativecommons.org/licenses/GPL/2.0/" />
      </cc:Work>
      <cc:License
         rdf:about="http://creativecommons.org/licenses/GPL/2.0/">
        <cc:permits
           rdf:resource="http://web.resource.org/cc/Reproduction" />
        <cc:permits
           rdf:resource="http://web.resource.org/cc/Distribution" />
        <cc:requires
           rdf:resource="http://web.resource.org/cc/Notice" />
        <cc:permits
           rdf:resource="http://web.resource.org/cc/DerivativeWorks" />
        <cc:requires
           rdf:resource="http://web.resource.org/cc/ShareAlike" />
        <cc:requires
           rdf:resource="http://web.resource.org/cc/SourceCode" />
      </cc:License>
    </rdf:RDF>
  </metadata>
  <g
     inkscape:label="Livello 1"
     inkscape:groupmode="layer"
     id="layer1">
    <path
       style="fill:url(#linearGradient2842);fill-opacity:1;stroke:#888a85;stroke-width:1;stroke-linecap:round;stroke-linejoin:miter;stroke-miterlimit:4;stroke-dasharray:none;stroke-dashoffset:1.20000057;stroke-opacity:1"
       d="M 2.46875,3.5 C 1.9246428,3.5 1.5,3.9246428 1.5,4.46875 L 1.5,13.53125 C 1.5,14.075357 1.9246428,14.5 2.46875,14.5 L 10.5625,14.5 L 7.28125,11.21875 L 6.59375,10.5 L 7.28125,9.78125 L 8.5625,8.5 L 6.28125,6.21875 L 5.59375,5.5 L 6.28125,4.78125 L 7.5625,3.5 L 2.46875,3.5 z M 10.4375,3.5 L 8.4375,5.5 L 10.71875,7.78125 L 11.40625,8.5 L 10.71875,9.21875 L 9.4375,10.5 L 13.4375,14.5 L 14.53125,14.5 C 15.075357,14.5 15.5,14.075357 15.5,13.53125 L 15.5,4.46875 C 15.5,3.9246428 15.075357,3.5 14.53125,3.5 L 10.4375,3.5 z "
       id="rect1879"
       sodipodi:nodetypes="cccccccccccccccccccccccccc" />
    <path
       style="fill:#3465a4;fill-opacity:1;stroke:#204a87;stroke-width:1;stroke-linecap:round;stroke-linejoin:miter;stroke-miterlimit:4;stroke-dasharray:none;stroke-dashoffset:1.20000057;stroke-opacity:1"
       d="M 7.03125,4.03125 L 9.5625,1.5 L 2.46875,1.5 C 1.9246428,1.5 1.5,1.9246428 1.5,2.46875 L 1.5,4.03125 M 15.5,4.03125 L 15.5,2.46875 C 15.5,1.9246428 15.075357,1.5 14.53125,1.5 L 12.4375,1.5 L 9.90625,4.03125"
       id="rect3651"
       sodipodi:nodetypes="cccccccccc" />
    <path
       style="fill:none;fill-opacity:1;stroke:url(#linearGradient2840);stroke-width:0.99999964;stroke-linecap:round;stroke-linejoin:miter;stroke-miterlimit:4;stroke-dashoffset:1.20000057;stroke-opacity:1"
       d="M 2.5625,2.5 C 2.5254351,2.5 2.5,2.5254349 2.5,2.5625 L 2.5,13.4375 C 2.5,13.474565 2.5254352,13.499999 2.5625,13.5 L 8.1875,13.5 L 5.15625,10.5 L 7.1875,8.5 L 4.15625,5.5 L 7.1875,2.5 L 2.5625,2.5 z M 12.8125,2.5 L 9.8125,5.5 L 12.84375,8.5 L 10.8125,10.5 L 13.8125,13.5 L 14.4375,13.5 C 14.474565,13.5 14.5,13.474564 14.5,13.4375 L 14.5,2.5625 C 14.5,2.525435 14.474566,2.5 14.4375,2.5 L 12.8125,2.5 z "
       id="rect3662"
       sodipodi:nodetypes="cccccccccccccccccccc" />
  </g>
</svg>
