<?xml version="1.0" encoding="UTF-8" standalone="no"?>
<!-- Created with Inkscape (http://www.inkscape.org/) -->
<svg
   xmlns:dc="http://purl.org/dc/elements/1.1/"
   xmlns:cc="http://web.resource.org/cc/"
   xmlns:rdf="http://www.w3.org/1999/02/22-rdf-syntax-ns#"
   xmlns:svg="http://www.w3.org/2000/svg"
   xmlns="http://www.w3.org/2000/svg"
   xmlns:sodipodi="http://sodipodi.sourceforge.net/DTD/sodipodi-0.dtd"
   xmlns:inkscape="http://www.inkscape.org/namespaces/inkscape"
   width="32"
   height="32"
   id="svg2285"
   sodipodi:version="0.32"
   inkscape:version="0.44"
   sodipodi:docbase="/home/lapo/Icone/mate-panel/32x32"
   sodipodi:docname="mate-window-list.svg"
   version="1.0"
   inkscape:output_extension="org.inkscape.output.svg.inkscape">
  <defs
     id="defs2287" />
  <sodipodi:namedview
     id="base"
     pagecolor="#ffffff"
     bordercolor="#666666"
     borderopacity="1.0"
     inkscape:pageopacity="0.0"
     inkscape:pageshadow="2"
     inkscape:zoom="1"
     inkscape:cx="17.819994"
     inkscape:cy="5.9484661"
     inkscape:current-layer="layer1"
     showgrid="false"
     inkscape:grid-bbox="true"
     inkscape:document-units="px"
     fill="#eeeeec"
     showguides="true"
     inkscape:guide-bbox="true"
     stroke="#204a87"
     inkscape:window-width="1280"
     inkscape:window-height="949"
     inkscape:window-x="0"
     inkscape:window-y="25"
     showborder="true"
     inkscape:showpageshadow="false"
     width="32px"
     height="32px"
     gridspacingx="0.5px"
     gridspacingy="0.5px"
     gridempspacing="2" />
  <metadata
     id="metadata2290">
    <rdf:RDF>
      <cc:Work
         rdf:about="">
        <dc:format>image/svg+xml</dc:format>
        <dc:type
           rdf:resource="http://purl.org/dc/dcmitype/StillImage" />
        <dc:title>Taskbar</dc:title>
        <dc:creator>
          <cc:Agent>
            <dc:title>Andreas Nilsson</dc:title>
          </cc:Agent>
        </dc:creator>
        <cc:license
           rdf:resource="http://creativecommons.org/licenses/GPL/2.0/" />
        <dc:contributor>
          <cc:Agent>
            <dc:title>Lapo Calamandrei</dc:title>
          </cc:Agent>
        </dc:contributor>
        <dc:subject>
          <rdf:Bag>
            <rdf:li>taskbar</rdf:li>
            <rdf:li>panel</rdf:li>
            <rdf:li>applet</rdf:li>
          </rdf:Bag>
        </dc:subject>
      </cc:Work>
      <cc:License
         rdf:about="http://creativecommons.org/licenses/GPL/2.0/">
        <cc:permits
           rdf:resource="http://web.resource.org/cc/Reproduction" />
        <cc:permits
           rdf:resource="http://web.resource.org/cc/Distribution" />
        <cc:requires
           rdf:resource="http://web.resource.org/cc/Notice" />
        <cc:permits
           rdf:resource="http://web.resource.org/cc/DerivativeWorks" />
        <cc:requires
           rdf:resource="http://web.resource.org/cc/ShareAlike" />
        <cc:requires
           rdf:resource="http://web.resource.org/cc/SourceCode" />
      </cc:License>
    </rdf:RDF>
  </metadata>
  <g
     id="layer1"
     inkscape:label="Layer 1"
     inkscape:groupmode="layer">
    <rect
       style="opacity:1;fill:#babdb6;fill-opacity:1;stroke:#555753;stroke-width:1.00000048;stroke-linecap:butt;stroke-linejoin:round;stroke-miterlimit:4;stroke-dasharray:none;stroke-dashoffset:0;stroke-opacity:1"
       id="rect3734"
       width="46.978497"
       height="22.986567"
       x="-4.4784975"
       y="3.5134335"
       rx="0"
       ry="0" />
    <path
       style="fill:#d3d7cf;fill-opacity:1;stroke:#555753;stroke-width:0.99999988;stroke-linecap:butt;stroke-linejoin:round;stroke-miterlimit:4;stroke-dashoffset:0;stroke-opacity:1"
       d="M -4.46875,6.545685 L -4.46875,23.473181 L 2.1875,23.473181 C 2.3239085,23.473181 2.4702395,23.44929 2.59375,23.410681 C 2.7871883,23.344878 2.9840671,23.209167 3.125,23.066931 C 3.1901439,22.997958 3.2632516,22.898901 3.3125,22.816931 C 3.4229364,22.622656 3.5,22.370353 3.5,22.129431 L 3.5,7.889435 C 3.5,7.648513 3.4229364,7.396209 3.3125,7.201935 C 3.2632516,7.119965 3.1901439,7.020908 3.125,6.951935 C 2.9840672,6.809699 2.7871883,6.673988 2.59375,6.608185 C 2.4702395,6.569576 2.3239084,6.545685 2.1875,6.545685 L -4.46875,6.545685 z M 6.65625,6.545685 C 6.579398,6.555488 6.478298,6.585663 6.40625,6.608185 C 6.212812,6.673988 6.015933,6.809699 5.875,6.951935 C 5.809856,7.020908 5.736748,7.119965 5.6875,7.201935 C 5.577064,7.396209 5.5,7.648513 5.5,7.889435 L 5.5,22.129431 C 5.5,22.370353 5.577064,22.622657 5.6875,22.816931 C 5.736748,22.898901 5.809856,22.997958 5.875,23.066931 C 6.015933,23.209167 6.212812,23.344878 6.40625,23.410681 C 6.529761,23.44929 6.676091,23.473181 6.8125,23.473181 L 42.46875,23.473181 L 42.46875,6.545685 L 6.8125,6.545685 C 6.755663,6.545685 6.711144,6.538683 6.65625,6.545685 z "
       id="rect3762"
       sodipodi:nodetypes="cccsssccssscccsssccsssccccc" />
    <path
       style="opacity:0.90980392;fill:none;fill-opacity:1;stroke:#eeeeec;stroke-width:0.99999952;stroke-linecap:butt;stroke-linejoin:round;stroke-miterlimit:4;stroke-dashoffset:0;stroke-opacity:1"
       d="M -4.53125,7.562712 L -4.53125,22.482043 L 1.875,22.482043 C 1.9694365,22.482043 2.0767266,22.45775 2.15625,22.419543 C 2.3022681,22.340417 2.4265303,22.178149 2.46875,22.013293 C 2.4767973,21.973767 2.5,21.930265 2.5,21.888293 L 2.5,8.187712 C 2.5,8.009332 2.403116,7.829679 2.28125,7.718962 C 2.2513391,7.694298 2.1906072,7.64383 2.15625,7.625212 C 2.0767266,7.587005 1.9694366,7.562712 1.875,7.562712 L -4.53125,7.562712 z M 7,7.562712 C 6.929628,7.573405 6.841375,7.623881 6.78125,7.656462 C 6.75626,7.671615 6.709933,7.700464 6.6875,7.718962 C 6.673163,7.731988 6.638026,7.767125 6.625,7.781462 C 6.606502,7.803895 6.577653,7.850222 6.5625,7.875212 C 6.515956,7.961105 6.46875,8.082783 6.46875,8.187712 L 6.46875,21.888293 C 6.46875,21.940758 6.487582,21.996056 6.5,22.044543 C 6.517656,22.101548 6.561138,22.183692 6.59375,22.232043 C 6.704082,22.379756 6.894383,22.482043 7.09375,22.482043 L 42.5,22.482043 L 42.5,7.562712 L 7.09375,7.562712 C 7.062271,7.562712 7.030159,7.558129 7,7.562712 z "
       id="rect3736"
       sodipodi:nodetypes="cccssccsscccssssccssccccc" />
    <g
       id="g1374"
       transform="translate(-4,-18.9375)">
      <rect
         ry="1.3131993"
         rx="1.3131984"
         y="29.501915"
         x="13.538324"
         height="8.998085"
         width="9.9616756"
         id="rect3746"
         style="opacity:1;fill:#eeeeec;fill-opacity:1;stroke:#888a85;stroke-width:1.00000036;stroke-linecap:round;stroke-linejoin:round;stroke-miterlimit:4;stroke-dasharray:none;stroke-dashoffset:0;stroke-opacity:1" />
      <rect
         ry="0"
         rx="0"
         y="30.429993"
         x="14.466402"
         height="7.0137119"
         width="7.9983864"
         id="rect2262"
         style="opacity:1;fill:none;fill-opacity:1;stroke:white;stroke-width:1.00000036;stroke-linecap:round;stroke-linejoin:round;stroke-miterlimit:4;stroke-dasharray:none;stroke-dashoffset:0;stroke-opacity:1" />
      <rect
         ry="1.3131993"
         rx="1.3131984"
         y="29.4375"
         x="13.5"
         height="3.0625"
         width="10"
         id="rect3748"
         style="opacity:1;fill:#729fcf;fill-opacity:1;stroke:#204a87;stroke-width:1;stroke-linecap:round;stroke-linejoin:round;stroke-miterlimit:4;stroke-dasharray:none;stroke-dashoffset:0;stroke-opacity:1" />
    </g>
    <rect
       style="opacity:0.14509804;fill:#2e3436;fill-opacity:1;stroke:none;stroke-width:1;stroke-linecap:round;stroke-linejoin:round;stroke-miterlimit:4;stroke-dasharray:none;stroke-dashoffset:0;stroke-opacity:1"
       id="rect3752"
       width="19"
       height="5"
       x="22"
       y="13"
       rx="0.5625"
       ry="0.5625" />
    <rect
       style="opacity:0.6745098;fill:none;fill-opacity:1;stroke:#eeeeec;stroke-width:1.00000048;stroke-linecap:butt;stroke-linejoin:round;stroke-miterlimit:4;stroke-dasharray:none;stroke-dashoffset:0;stroke-opacity:1"
       id="rect2247"
       width="47.590965"
       height="21.028"
       x="-4.5909643"
       y="4.5097847"
       rx="0"
       ry="0" />
  </g>
</svg>
