<?xml version="1.0" encoding="UTF-8" standalone="no"?>
<!-- Created with Inkscape (http://www.inkscape.org/) -->
<svg
   xmlns:s="http://inkscape.sourceforge.net/DTD/s odipodi-0.dtd"
   xmlns:dc="http://purl.org/dc/elements/1.1/"
   xmlns:cc="http://web.resource.org/cc/"
   xmlns:rdf="http://www.w3.org/1999/02/22-rdf-syntax-ns#"
   xmlns:svg="http://www.w3.org/2000/svg"
   xmlns="http://www.w3.org/2000/svg"
   xmlns:xlink="http://www.w3.org/1999/xlink"
   xmlns:sodipodi="http://sodipodi.sourceforge.net/DTD/sodipodi-0.dtd"
   xmlns:inkscape="http://www.inkscape.org/namespaces/inkscape"
   width="32"
   height="32"
   id="svg2"
   s:version="0.32"
   inkscape:version="0.44"
   version="1.0"
   s:docbase="/home/lapo/Templates"
   s:docname="Icona 48x48.svg"
   inkscape:export-filename="/home/lapo/Desktop/xubuntu/pngs/wksp.png"
   inkscape:export-xdpi="90"
   inkscape:export-ydpi="90"
   sodipodi:version="0.32"
   sodipodi:docname="mate-window-menu.svg"
   sodipodi:docbase="/home/lapo/Icone/mate-panel/32x32"
   inkscape:output_extension="org.inkscape.output.svg.inkscape">
  <sodipodi:namedview
     inkscape:window-height="622"
     inkscape:window-width="1051"
     inkscape:pageshadow="2"
     inkscape:pageopacity="0.0"
     guidetolerance="10.0"
     gridtolerance="10.0"
     objecttolerance="10.0"
     borderopacity="1.0"
     bordercolor="#666666"
     pagecolor="#ffffff"
     id="base"
     showgrid="false"
     gridspacingx="0.5px"
     gridspacingy="0.5px"
     gridempspacing="2"
     inkscape:showpageshadow="false"
     showborder="false"
     inkscape:zoom="1"
     inkscape:cx="21.686649"
     inkscape:cy="4.8324873"
     inkscape:window-x="0"
     inkscape:window-y="25"
     inkscape:current-layer="layer1"
     width="32px"
     height="32px" />
  <defs
     id="defs4">
    <linearGradient
       id="linearGradient3690">
      <stop
         style="stop-color:white;stop-opacity:1;"
         offset="0"
         id="stop3692" />
      <stop
         style="stop-color:white;stop-opacity:0.46875"
         offset="1"
         id="stop3694" />
    </linearGradient>
    <linearGradient
       id="linearGradient3674">
      <stop
         style="stop-color:#3465a4;stop-opacity:1"
         offset="0"
         id="stop3676" />
      <stop
         style="stop-color:#729fcf;stop-opacity:1;"
         offset="1"
         id="stop3678" />
    </linearGradient>
    <linearGradient
       id="linearGradient2781">
      <stop
         style="stop-color:#d3d7cf;stop-opacity:1"
         offset="0"
         id="stop2783" />
      <stop
         style="stop-color:#eeeeec;stop-opacity:1"
         offset="1"
         id="stop2785" />
    </linearGradient>
    <linearGradient
       id="linearGradient5048">
      <stop
         id="stop5050"
         offset="0"
         style="stop-color:black;stop-opacity:0;" />
      <stop
         style="stop-color:black;stop-opacity:1;"
         offset="0.5"
         id="stop5056" />
      <stop
         id="stop5052"
         offset="1"
         style="stop-color:black;stop-opacity:0;" />
    </linearGradient>
    <linearGradient
       id="linearGradient5060"
       inkscape:collect="always">
      <stop
         id="stop5062"
         offset="0"
         style="stop-color:black;stop-opacity:1;" />
      <stop
         id="stop5064"
         offset="1"
         style="stop-color:black;stop-opacity:0;" />
    </linearGradient>
    <linearGradient
       inkscape:collect="always"
       xlink:href="#linearGradient5048"
       id="linearGradient5798"
       gradientUnits="userSpaceOnUse"
       gradientTransform="matrix(2.774389,0,0,1.969706,-1892.179,-872.8854)"
       x1="302.85715"
       y1="366.64789"
       x2="302.85715"
       y2="609.50507" />
    <radialGradient
       inkscape:collect="always"
       xlink:href="#linearGradient5060"
       id="radialGradient5800"
       gradientUnits="userSpaceOnUse"
       gradientTransform="matrix(2.774389,0,0,1.969706,-1891.633,-872.8854)"
       cx="605.71429"
       cy="486.64789"
       fx="605.71429"
       fy="486.64789"
       r="117.14286" />
    <radialGradient
       inkscape:collect="always"
       xlink:href="#linearGradient5060"
       id="radialGradient5802"
       gradientUnits="userSpaceOnUse"
       gradientTransform="matrix(-2.774389,0,0,1.969706,112.7623,-872.8854)"
       cx="605.71429"
       cy="486.64789"
       fx="605.71429"
       fy="486.64789"
       r="117.14286" />
    <linearGradient
       inkscape:collect="always"
       xlink:href="#linearGradient3690"
       id="linearGradient5841"
       gradientUnits="userSpaceOnUse"
       gradientTransform="matrix(0.741582,0,0,0.724136,-0.545028,0.620715)"
       x1="9.5"
       y1="16.26436"
       x2="9.5"
       y2="13.408723" />
    <linearGradient
       inkscape:collect="always"
       xlink:href="#linearGradient2781"
       id="linearGradient5853"
       gradientUnits="userSpaceOnUse"
       gradientTransform="matrix(0.756708,0,0,0.742029,-2.923171,-1.808703)"
       x1="24.925514"
       y1="40.000107"
       x2="24.925514"
       y2="19.53867" />
    <linearGradient
       inkscape:collect="always"
       xlink:href="#linearGradient3674"
       id="linearGradient5855"
       gradientUnits="userSpaceOnUse"
       gradientTransform="matrix(0.756708,0,0,0.742029,-2.923171,-0.808581)"
       x1="23.069359"
       y1="6.7993021"
       x2="23.069359"
       y2="12.403291" />
    <linearGradient
       inkscape:collect="always"
       xlink:href="#linearGradient2781"
       id="linearGradient1927"
       gradientUnits="userSpaceOnUse"
       gradientTransform="matrix(0.756708,0,0,0.742029,-2.923171,-1.808703)"
       x1="24.925514"
       y1="40.000107"
       x2="24.925514"
       y2="19.53867" />
    <linearGradient
       inkscape:collect="always"
       xlink:href="#linearGradient3674"
       id="linearGradient1929"
       gradientUnits="userSpaceOnUse"
       gradientTransform="matrix(0.756708,0,0,0.742029,-2.923171,-0.808581)"
       x1="23.069359"
       y1="6.7993021"
       x2="23.069359"
       y2="12.403291" />
    <linearGradient
       inkscape:collect="always"
       xlink:href="#linearGradient3690"
       id="linearGradient1931"
       gradientUnits="userSpaceOnUse"
       gradientTransform="matrix(0.741582,0,0,0.724136,-0.545028,-3.379285)"
       x1="9.5"
       y1="16.26436"
       x2="9.5"
       y2="13.408723" />
  </defs>
  <s:namedview
     pagecolor="#ffffff"
     bordercolor="#666666"
     borderopacity="1.0"
     inkscape:pageopacity="0.0"
     inkscape:pageshadow="2"
     inkscape:zoom="1"
     inkscape:cx="10.097903"
     inkscape:cy="38.917761"
     inkscape:document-units="px"
     inkscape:current-layer="layer1"
     showgrid="false"
     gridempspacing="2"
     gridspacingx="0.5px"
     gridspacingy="0.5px"
     inkscape:window-width="965"
     inkscape:window-height="763"
     inkscape:window-x="176"
     inkscape:window-y="103"
     fill="#729fcf"
     stroke="#3465a4"
     inkscape:showpageshadow="false"
     showguides="false"
     inkscape:guide-bbox="true"
     inkscape:grid-points="true"
     inkscape:grid-bbox="false"
     showborder="true">
    <s:guide
       orientation="vertical"
       position="24.041631"
       id="guide2191" />
    <s:guide
       orientation="horizontal"
       position="25.986174"
       id="guide2203" />
  </s:namedview>
  <metadata
     id="metadata7">
    <rdf:RDF>
      <cc:Work
         rdf:about="">
        <dc:format>image/svg+xml</dc:format>
        <dc:type
           rdf:resource="http://purl.org/dc/dcmitype/StillImage" />
        <dc:creator>
          <cc:Agent>
            <dc:title>Lapo Calamandrei</dc:title>
          </cc:Agent>
        </dc:creator>
        <dc:title>Create a window</dc:title>
        <dc:subject>
          <rdf:Bag />
        </dc:subject>
        <cc:license
           rdf:resource="http://creativecommons.org/licenses/GPL/2.0/" />
      </cc:Work>
      <cc:License
         rdf:about="http://creativecommons.org/licenses/GPL/2.0/">
        <cc:permits
           rdf:resource="http://web.resource.org/cc/Reproduction" />
        <cc:permits
           rdf:resource="http://web.resource.org/cc/Distribution" />
        <cc:requires
           rdf:resource="http://web.resource.org/cc/Notice" />
        <cc:permits
           rdf:resource="http://web.resource.org/cc/DerivativeWorks" />
        <cc:requires
           rdf:resource="http://web.resource.org/cc/ShareAlike" />
        <cc:requires
           rdf:resource="http://web.resource.org/cc/SourceCode" />
      </cc:License>
    </rdf:RDF>
  </metadata>
  <g
     inkscape:label="Livello 1"
     inkscape:groupmode="layer"
     id="layer1">
    <g
       style="opacity:0.58730164;display:inline"
       id="g5022"
       transform="matrix(1.428266e-2,0,0,9.407189e-3,30.70351,28.41764)">
      <rect
         y="-150.69685"
         x="-1559.2523"
         height="478.35718"
         width="1339.6335"
         id="rect4173"
         style="opacity:0.40206185;color:black;fill:url(#linearGradient5798);fill-opacity:1;fill-rule:nonzero;stroke:none;stroke-width:1;stroke-linecap:round;stroke-linejoin:miter;marker:none;marker-start:none;marker-mid:none;marker-end:none;stroke-miterlimit:4;stroke-dasharray:none;stroke-dashoffset:0;stroke-opacity:1;visibility:visible;display:inline;overflow:visible" />
      <path
         sodipodi:nodetypes="cccc"
         id="path5058"
         d="M -219.61876,-150.68038 C -219.61876,-150.68038 -219.61876,327.65041 -219.61876,327.65041 C -76.744594,328.55086 125.78146,220.48075 125.78138,88.454235 C 125.78138,-43.572302 -33.655436,-150.68036 -219.61876,-150.68038 z "
         style="opacity:0.40206185;color:black;fill:url(#radialGradient5800);fill-opacity:1;fill-rule:nonzero;stroke:none;stroke-width:1;stroke-linecap:round;stroke-linejoin:miter;marker:none;marker-start:none;marker-mid:none;marker-end:none;stroke-miterlimit:4;stroke-dasharray:none;stroke-dashoffset:0;stroke-opacity:1;visibility:visible;display:inline;overflow:visible" />
      <path
         style="opacity:0.40206185;color:black;fill:url(#radialGradient5802);fill-opacity:1;fill-rule:nonzero;stroke:none;stroke-width:1;stroke-linecap:round;stroke-linejoin:miter;marker:none;marker-start:none;marker-mid:none;marker-end:none;stroke-miterlimit:4;stroke-dasharray:none;stroke-dashoffset:0;stroke-opacity:1;visibility:visible;display:inline;overflow:visible"
         d="M -1559.2523,-150.68038 C -1559.2523,-150.68038 -1559.2523,327.65041 -1559.2523,327.65041 C -1702.1265,328.55086 -1904.6525,220.48075 -1904.6525,88.454235 C -1904.6525,-43.572302 -1745.2157,-150.68036 -1559.2523,-150.68038 z "
         id="path5018"
         sodipodi:nodetypes="cccc" />
    </g>
    <g
       id="g1933">
      <g
         transform="matrix(1.001116,0,0,0.999878,1.987418,2.001939)"
         id="g5849">
        <path
           sodipodi:nodetypes="ccccccccc"
           id="rect1887"
           d="M 6.0211447,6.8698052 L 26.966811,6.8698052 C 27.805243,6.8698052 28.480226,7.5316953 28.480226,8.3538638 L 28.480226,26.017386 C 28.480226,26.839555 27.805243,27.501445 26.966811,27.501445 L 6.0211447,27.501445 C 5.1827126,27.501445 4.5077293,26.839555 4.5077293,26.017386 L 4.5077293,8.3538638 C 4.5077293,7.5316953 5.1827126,6.8698052 6.0211447,6.8698052 z "
           style="fill:url(#linearGradient5853);fill-opacity:1;stroke:#888a85;stroke-width:0.99950331;stroke-miterlimit:4;stroke-opacity:1" />
        <path
           style="fill:url(#linearGradient5855);fill-opacity:1;stroke:#204a87;stroke-width:0.99950355;stroke-miterlimit:4;stroke-opacity:1"
           d="M 4.5077287,10.008639 L 4.5077287,6.9827311 C 4.5077287,6.1605625 5.1827119,5.4986724 6.021144,5.4986724 L 26.966781,5.4986724 C 27.805213,5.4986724 28.480196,6.1605625 28.480196,6.9827311 L 28.480196,10.008639"
           id="rect2776"
           sodipodi:nodetypes="cccccc" />
      </g>
      <path
         sodipodi:nodetypes="ccccccccc"
         id="rect2779"
         d="M 8.2381638,8.500021 L 28.750877,8.500021 C 29.159819,8.500021 29.48904,8.8214974 29.48904,9.2208201 L 29.48904,27.779195 C 29.48904,28.178518 29.159819,28.499994 28.750877,28.499994 L 8.2381638,28.499994 C 7.8292211,28.499994 7.5,28.178518 7.5,27.779195 L 7.5,9.2208201 C 7.5,8.8214974 7.8292211,8.500021 8.2381638,8.500021 z "
         style="opacity:0.8;fill:none;fill-opacity:1;stroke:url(#linearGradient5841);stroke-width:1.00000036;stroke-miterlimit:4;stroke-opacity:1" />
    </g>
    <path
       style="fill:black;fill-opacity:1;stroke:black;stroke-width:0.99999988;stroke-miterlimit:4;stroke-opacity:1;opacity:0.07335907"
       d="M 8.03125 7.5 C 7.1918822 7.5 6.4999999 8.1466811 6.5 8.96875 L 6.5 24.5 L 23.96875 24.5 C 24.808118 24.5 25.5 23.853319 25.5 23.03125 L 25.5 7.5 L 8.03125 7.5 z "
       id="path1924" />
    <g
       id="g1921"
       transform="translate(-6,-2)">
      <g
         transform="matrix(1.001116,0,0,0.999878,1.987418,-1.998061)"
         id="g1907">
        <path
           sodipodi:nodetypes="ccccccccc"
           id="path1909"
           d="M 6.0211447,6.8698052 L 26.966811,6.8698052 C 27.805243,6.8698052 28.480226,7.5316953 28.480226,8.3538638 L 28.480226,26.017386 C 28.480226,26.839555 27.805243,27.501445 26.966811,27.501445 L 6.0211447,27.501445 C 5.1827126,27.501445 4.5077293,26.839555 4.5077293,26.017386 L 4.5077293,8.3538638 C 4.5077293,7.5316953 5.1827126,6.8698052 6.0211447,6.8698052 z "
           style="fill:url(#linearGradient1927);fill-opacity:1;stroke:#888a85;stroke-width:0.99950331;stroke-miterlimit:4;stroke-opacity:1" />
        <path
           style="fill:url(#linearGradient1929);fill-opacity:1;stroke:#204a87;stroke-width:0.99950355;stroke-miterlimit:4;stroke-opacity:1"
           d="M 4.5077287,10.008639 L 4.5077287,6.9827311 C 4.5077287,6.1605625 5.1827119,5.4986724 6.021144,5.4986724 L 26.966781,5.4986724 C 27.805213,5.4986724 28.480196,6.1605625 28.480196,6.9827311 L 28.480196,10.008639"
           id="path1911"
           sodipodi:nodetypes="cccccc" />
      </g>
      <path
         sodipodi:nodetypes="ccccccccc"
         id="path1913"
         d="M 8.2381638,4.500021 L 28.750877,4.500021 C 29.159819,4.500021 29.48904,4.8214974 29.48904,5.2208201 L 29.48904,23.779195 C 29.48904,24.178518 29.159819,24.499994 28.750877,24.499994 L 8.2381638,24.499994 C 7.8292211,24.499994 7.5,24.178518 7.5,23.779195 L 7.5,5.2208201 C 7.5,4.8214974 7.8292211,4.500021 8.2381638,4.500021 z "
         style="opacity:0.8;fill:none;fill-opacity:1;stroke:url(#linearGradient1931);stroke-width:1.00000036;stroke-miterlimit:4;stroke-opacity:1" />
    </g>
    <path
       style="font-size:14.59230423px;font-style:normal;font-weight:normal;fill:#888a85;fill-opacity:1;stroke:none;stroke-width:1px;stroke-linecap:butt;stroke-linejoin:miter;stroke-opacity:1;font-family:Bitstream Vera Sans"
       d="M 10.999316,17.001975 L 14.002801,17.001975 L 14.002801,20.000002 L 10.999316,20.000002 L 10.999316,17.001975"
       id="text1939"
       sodipodi:nodetypes="ccccc" />
    <path
       style="font-size:14.59230423px;font-style:normal;font-weight:normal;fill:#888a85;fill-opacity:1;stroke:none;stroke-width:1px;stroke-linecap:butt;stroke-linejoin:miter;stroke-opacity:1;font-family:Bitstream Vera Sans"
       d="M 14.018425,16 L 10.999316,16 L 10.999316,15.662401 C 10.999313,15.285766 11.231313,14.832008 11.491281,14.600885 C 12.269181,13.909297 12.880672,13.498353 13.603936,12.690535 C 13.761479,12.479256 13.840254,12.26797 13.84026,12.056677 C 13.840254,11.735161 13.700211,11.484834 13.420129,11.305692 C 13.140036,11.121975 12.749081,11.030111 12.247264,11.030102 C 11.774612,11.030111 11.264037,11.108194 10.715536,11.264354 C 10.167029,11.415938 9.5951849,11.6433 9.0000012,11.946441 L 9.0000012,9.5649608 C 9.7060526,9.3720575 10.350836,9.229669 10.934354,9.1377953 C 11.517866,9.0459421 12.080957,9.0000105 12.623631,9 C 14.047401,9.0000105 15.132739,9.229669 15.879646,9.6889764 C 16.626536,10.14371 16.999986,10.80972 16.999995,11.687008 C 16.999986,12.137146 16.886201,12.541347 16.658639,12.899607 C 16.431059,13.253287 16.043022,13.634521 15.494525,14.043307 L 14.934351,14.436024 C 14.537554,14.720805 14.324765,14.950465 14.202233,15.125 C 14.079688,15.294952 14.018419,15.483271 14.018425,15.689962 L 14.018425,16"
       id="path1918"
       sodipodi:nodetypes="cccssssssccsssssccscc" />
  </g>
</svg>
