<?xml version="1.0" encoding="UTF-8" standalone="no"?>
<!-- Created with Inkscape (http://www.inkscape.org/) -->
<svg
   xmlns:dc="http://purl.org/dc/elements/1.1/"
   xmlns:cc="http://web.resource.org/cc/"
   xmlns:rdf="http://www.w3.org/1999/02/22-rdf-syntax-ns#"
   xmlns:svg="http://www.w3.org/2000/svg"
   xmlns="http://www.w3.org/2000/svg"
   xmlns:xlink="http://www.w3.org/1999/xlink"
   xmlns:sodipodi="http://inkscape.sourceforge.net/DTD/sodipodi-0.dtd"
   xmlns:inkscape="http://www.inkscape.org/namespaces/inkscape"
   width="50"
   height="50"
   id="svg5416"
   sodipodi:version="0.32"
   inkscape:version="0.43"
   version="1.0"
   sodipodi:docbase="/home/garrett/Desktop"
   sodipodi:docname="clock-face-large.svg">
  <defs
     id="defs5418">
    <linearGradient
       id="linearGradient10653">
      <stop
         id="stop10655"
         offset="0.0000000"
         style="stop-color:#f3f4ff;stop-opacity:1.0000000;" />
      <stop
         id="stop10657"
         offset="1.0000000"
         style="stop-color:#9193af;stop-opacity:1.0000000;" />
    </linearGradient>
    <linearGradient
       id="linearGradient42174">
      <stop
         id="stop42176"
         offset="0.0000000"
         style="stop-color:#a0a0a0;stop-opacity:1.0000000;" />
      <stop
         id="stop42178"
         offset="1.0000000"
         style="stop-color:#ffffff;stop-opacity:1.0000000;" />
    </linearGradient>
    <linearGradient
       id="linearGradient2145">
      <stop
         id="stop2147"
         offset="0.0000000"
         style="stop-color:#fffffd;stop-opacity:1.0000000;" />
      <stop
         id="stop2149"
         offset="1"
         style="stop-color:#d9d9d8;stop-opacity:1;" />
    </linearGradient>
    <linearGradient
       id="linearGradient37935">
      <stop
         style="stop-color:#9497b3;stop-opacity:1.0000000;"
         offset="0.0000000"
         id="stop37937" />
      <stop
         style="stop-color:#4c4059;stop-opacity:1.0000000;"
         offset="1.0000000"
         id="stop37939" />
    </linearGradient>
    <linearGradient
       id="linearGradient3816"
       inkscape:collect="always">
      <stop
         id="stop3818"
         offset="0"
         style="stop-color:#000000;stop-opacity:1;" />
      <stop
         id="stop3820"
         offset="1"
         style="stop-color:#000000;stop-opacity:0;" />
    </linearGradient>
    <radialGradient
       inkscape:collect="always"
       xlink:href="#linearGradient37935"
       id="radialGradient5593"
       gradientUnits="userSpaceOnUse"
       cx="8.7468252"
       cy="6.8283234"
       fx="8.7468252"
       fy="6.8283234"
       r="29.889715" />
    <radialGradient
       inkscape:collect="always"
       xlink:href="#linearGradient2145"
       id="radialGradient5595"
       gradientUnits="userSpaceOnUse"
       cx="11.901996"
       cy="10.045444"
       fx="11.901996"
       fy="10.045444"
       r="29.292715" />
    <linearGradient
       inkscape:collect="always"
       xlink:href="#linearGradient42174"
       id="linearGradient5597"
       gradientUnits="userSpaceOnUse"
       x1="6.342216"
       y1="7.7893324"
       x2="22.218424"
       y2="25.884274" />
    <radialGradient
       inkscape:collect="always"
       xlink:href="#linearGradient10653"
       id="radialGradient5599"
       gradientUnits="userSpaceOnUse"
       cx="11.3292"
       cy="10.58397"
       fx="11.3292"
       fy="10.58397"
       r="15.532059" />
    <radialGradient
       inkscape:collect="always"
       xlink:href="#linearGradient2145"
       id="radialGradient5601"
       gradientUnits="userSpaceOnUse"
       cx="11.901996"
       cy="10.045444"
       fx="11.901996"
       fy="10.045444"
       r="29.292715" />
    <linearGradient
       inkscape:collect="always"
       xlink:href="#linearGradient42174"
       id="linearGradient5603"
       gradientUnits="userSpaceOnUse"
       x1="6.342216"
       y1="7.7893324"
       x2="22.218424"
       y2="25.884274" />
    <radialGradient
       inkscape:collect="always"
       xlink:href="#linearGradient3816"
       id="radialGradient5605"
       gradientUnits="userSpaceOnUse"
       cx="31.112698"
       cy="19.008621"
       fx="31.112698"
       fy="19.008621"
       r="8.6620579" />
  </defs>
  <sodipodi:namedview
     id="base"
     pagecolor="#ffffff"
     bordercolor="#666666"
     borderopacity="1.0"
     inkscape:pageopacity="0.0"
     inkscape:pageshadow="2"
     inkscape:zoom="10.446983"
     inkscape:cx="24.509202"
     inkscape:cy="28.161554"
     inkscape:document-units="px"
     inkscape:current-layer="layer1"
     inkscape:window-width="1600"
     inkscape:window-height="1152"
     inkscape:window-x="0"
     inkscape:window-y="0" />
  <metadata
     id="metadata5421">
    <rdf:RDF>
      <cc:Work
         rdf:about="">
        <dc:format>image/svg+xml</dc:format>
        <dc:type
           rdf:resource="http://purl.org/dc/dcmitype/StillImage" />
      </cc:Work>
    </rdf:RDF>
  </metadata>
  <g
     inkscape:label="Layer 1"
     inkscape:groupmode="layer"
     id="layer1">
    <path
       d="M 39.774755 19.008621 A 8.6620579 8.6620579 0 1 1  22.45064,19.008621 A 8.6620579 8.6620579 0 1 1  39.774755 19.008621 z"
       sodipodi:ry="8.6620579"
       sodipodi:rx="8.6620579"
       sodipodi:cy="19.008621"
       sodipodi:cx="31.112698"
       id="path4415"
       style="opacity:1;color:#000000;fill:url(#radialGradient5605);fill-opacity:1;fill-rule:evenodd;stroke:none;stroke-width:1px;stroke-linecap:round;stroke-linejoin:round;marker:none;marker-start:none;marker-mid:none;marker-end:none;stroke-miterlimit:4;stroke-dasharray:none;stroke-dashoffset:0;stroke-opacity:1;visibility:visible;display:inline;overflow:visible"
       sodipodi:type="arc"
       transform="matrix(2.30892,0,0,1.098631,-46.84483,19.60015)" />
    <path
       transform="matrix(1.548421,0,0,1.548421,-0.161834,-1.184899)"
       d="M 31.160714 16.910715 A 14.910714 14.910714 0 1 1  1.3392859,16.910715 A 14.910714 14.910714 0 1 1  31.160714 16.910715 z"
       sodipodi:ry="14.910714"
       sodipodi:rx="14.910714"
       sodipodi:cy="16.910715"
       sodipodi:cx="16.25"
       id="path4417"
       style="fill:url(#radialGradient5593);fill-opacity:1;fill-rule:evenodd;stroke:#605773;stroke-width:1.17789125;stroke-linecap:round;stroke-linejoin:round;stroke-miterlimit:4;stroke-dashoffset:0;stroke-opacity:1"
       sodipodi:type="arc" />
    <path
       transform="matrix(1.294287,0,0,1.294287,3.865446,3.010334)"
       d="M 31.160714 16.910715 A 14.910714 14.910714 0 1 1  1.3392859,16.910715 A 14.910714 14.910714 0 1 1  31.160714 16.910715 z"
       sodipodi:ry="14.910714"
       sodipodi:rx="14.910714"
       sodipodi:cy="16.910715"
       sodipodi:cx="16.25"
       id="path4419"
       style="fill:url(#radialGradient5595);fill-opacity:1;fill-rule:evenodd;stroke:url(#linearGradient5597);stroke-width:1.19954503;stroke-linecap:round;stroke-linejoin:round;stroke-miterlimit:4;stroke-dashoffset:0;stroke-opacity:1"
       sodipodi:type="arc" />
    <path
       sodipodi:type="arc"
       style="fill:none;fill-opacity:1;fill-rule:evenodd;stroke:url(#radialGradient5599);stroke-width:1.24198496;stroke-linecap:round;stroke-linejoin:round;stroke-miterlimit:4;stroke-dashoffset:0;stroke-opacity:1"
       id="path4421"
       sodipodi:cx="16.25"
       sodipodi:cy="16.910715"
       sodipodi:rx="14.910714"
       sodipodi:ry="14.910714"
       d="M 31.160714 16.910715 A 14.910714 14.910714 0 1 1  1.3392859,16.910715 A 14.910714 14.910714 0 1 1  31.160714 16.910715 z"
       transform="matrix(1.468514,0,0,1.468514,1.136597,7.079533e-2)" />
    <path
       transform="matrix(1.294287,0,0,1.294287,3.865446,3.010334)"
       d="M 31.160714 16.910715 A 14.910714 14.910714 0 1 1  1.3392859,16.910715 A 14.910714 14.910714 0 1 1  31.160714 16.910715 z"
       sodipodi:ry="14.910714"
       sodipodi:rx="14.910714"
       sodipodi:cy="16.910715"
       sodipodi:cx="16.25"
       id="path4429"
       style="opacity:0.53921569;fill:url(#radialGradient5601);fill-opacity:1;fill-rule:evenodd;stroke:url(#linearGradient5603);stroke-width:1.19954503;stroke-linecap:round;stroke-linejoin:round;stroke-miterlimit:4;stroke-dashoffset:0;stroke-opacity:1;display:inline"
       sodipodi:type="arc" />
    <g
       id="g4760"
       transform="matrix(0.966895,0,0,0.966895,0.827632,0.827631)">
      <path
         id="text4433"
         d="M 23.395162,9.0668143 L 23.395162,12.043662 L 23.913899,12.043662 L 23.913899,7.8642859 L 23.572004,7.8642859 C 23.389268,8.5068127 23.271372,8.5952346 22.469687,8.6954452 L 22.469687,9.0668143 L 23.395162,9.0668143 M 27.500839,11.530819 L 25.302099,11.530819 C 25.355151,11.188924 25.543785,10.970817 26.056627,10.670186 L 26.646102,10.351869 C 27.229681,10.033553 27.530313,9.6032358 27.530313,9.0903933 C 27.530313,8.7426035 27.38884,8.4183919 27.141261,8.1943917 C 26.893681,7.9703915 26.587153,7.8642859 26.192206,7.8642859 C 25.661679,7.8642859 25.266731,8.0529181 25.036836,8.4066026 C 24.889466,8.6306028 24.824624,8.8899723 24.812835,9.3143937 L 25.331573,9.3143937 C 25.349257,9.0314461 25.384625,8.860498 25.455362,8.724919 C 25.590941,8.4714451 25.8621,8.3181814 26.174521,8.3181814 C 26.646101,8.3181814 26.999786,8.6541824 26.999786,9.1021828 C 26.999786,9.4322883 26.805259,9.7152367 26.43389,9.927447 L 25.891573,10.233974 C 25.019152,10.729133 24.765676,11.124082 24.718519,12.043662 L 27.500839,12.043662 L 27.500839,11.530819"
         style="font-size:5.89474726px;font-style:normal;font-weight:normal;text-align:center;text-anchor:middle;fill:#555753;fill-opacity:1;stroke:none;stroke-width:1px;stroke-linecap:butt;stroke-linejoin:miter;stroke-opacity:1;display:inline;font-family:Nimbus Sans L" />
      <path
         id="text4437"
         d="M 16.212011,11.007326 L 16.212011,13.984173 L 16.730749,13.984173 L 16.730749,9.8047976 L 16.388853,9.8047976 C 16.206116,10.447324 16.08822,10.535746 15.286536,10.635957 L 15.286536,11.007326 L 16.212011,11.007326 M 18.861687,11.007326 L 18.861687,13.984173 L 19.380424,13.984173 L 19.380424,9.8047976 L 19.038529,9.8047976 C 18.855792,10.447324 18.737896,10.535746 17.936211,10.635957 L 17.936211,11.007326 L 18.861687,11.007326"
         style="font-size:5.89474726px;font-style:normal;font-weight:normal;text-align:center;text-anchor:middle;fill:#555753;fill-opacity:1;stroke:none;stroke-width:1px;stroke-linecap:butt;stroke-linejoin:miter;stroke-opacity:1;display:inline;font-family:Nimbus Sans L" />
      <path
         id="text4441"
         d="M 10.655018,16.363726 L 10.655018,19.340573 L 11.173756,19.340573 L 11.173756,15.161197 L 10.831861,15.161197 C 10.649124,15.803724 10.531228,15.892146 9.7295429,15.992356 L 9.7295429,16.363726 L 10.655018,16.363726 M 13.39901,15.161197 C 13.009957,15.161197 12.656272,15.332145 12.438166,15.620987 C 12.167008,15.986461 12.031429,16.546463 12.031429,17.318675 C 12.031429,18.727518 12.503009,19.476152 13.39901,19.476152 C 14.283221,19.476152 14.766591,18.727518 14.766591,17.354043 C 14.766591,16.540569 14.636907,15.998251 14.359854,15.620987 C 14.141748,15.32625 13.793958,15.161197 13.39901,15.161197 M 13.39901,15.620987 C 13.95901,15.620987 14.236064,16.186884 14.236064,17.306885 C 14.236064,18.491728 13.964905,19.045836 13.38722,19.045836 C 12.83901,19.045836 12.561956,18.468149 12.561956,17.324569 C 12.561956,16.18099 12.83901,15.620987 13.39901,15.620987"
         style="font-size:5.89474726px;font-style:normal;font-weight:normal;text-align:center;text-anchor:middle;fill:#555753;fill-opacity:1;stroke:none;stroke-width:1px;stroke-linecap:butt;stroke-linejoin:miter;stroke-opacity:1;display:inline;font-family:Nimbus Sans L" />
      <path
         id="text4445"
         d="M 8.7336924,25.958803 C 8.833903,26.642593 9.2819044,27.049331 9.9185369,27.049331 C 10.378326,27.049331 10.796854,26.825331 11.038539,26.453962 C 11.303802,26.047225 11.421697,25.534381 11.421697,24.773959 C 11.421697,24.072485 11.315592,23.624483 11.068012,23.253114 C 10.838117,22.917114 10.472642,22.734376 10.012853,22.734376 C 9.2170623,22.734376 8.6452711,23.323852 8.6452711,24.143221 C 8.6452711,24.921327 9.1757991,25.469539 9.9303258,25.469539 C 10.325274,25.469539 10.614117,25.328065 10.885275,25.003854 C 10.87938,26.023644 10.549274,26.589541 9.9539049,26.589541 C 9.5884311,26.589541 9.3349564,26.359645 9.25243,25.958803 L 8.7336924,25.958803 M 10.006958,23.188272 C 10.490327,23.188272 10.855801,23.589115 10.855801,24.131431 C 10.855801,24.644274 10.496221,25.009749 9.9892739,25.009749 C 9.4882205,25.009749 9.1757983,24.661958 9.1757983,24.101958 C 9.1757983,23.571431 9.5294836,23.188272 10.006958,23.188272"
         style="font-size:5.89474726px;font-style:normal;font-weight:normal;text-align:center;text-anchor:middle;fill:#555753;fill-opacity:1;stroke:none;stroke-width:1px;stroke-linecap:butt;stroke-linejoin:miter;stroke-opacity:1;display:inline;font-family:Nimbus Sans L" />
      <path
         id="text4449"
         d="M 12.931858,32.152782 C 13.362174,31.893414 13.503648,31.681202 13.503648,31.286254 C 13.503648,30.631938 12.990804,30.172147 12.248067,30.172147 C 11.511224,30.172147 10.992486,30.631938 10.992486,31.286254 C 10.992486,31.675307 11.13396,31.887519 11.558382,32.152782 C 11.080908,32.382677 10.845117,32.730468 10.845117,33.190258 C 10.845117,33.956574 11.422803,34.487102 12.248067,34.487102 C 13.073331,34.487102 13.651017,33.956574 13.651017,33.196153 C 13.651017,32.730468 13.415226,32.382677 12.931858,32.152782 M 12.248067,30.631937 C 12.690173,30.631937 12.973121,30.891307 12.973121,31.298044 C 12.973121,31.687097 12.684278,31.946466 12.248067,31.946466 C 11.811856,31.946466 11.523013,31.687097 11.523013,31.292149 C 11.523013,30.891307 11.811856,30.631937 12.248067,30.631937 M 12.248067,32.382677 C 12.766804,32.382677 13.12049,32.712784 13.12049,33.202047 C 13.12049,33.697206 12.766804,34.027312 12.236277,34.027312 C 11.72933,34.027312 11.375644,33.691311 11.375644,33.202047 C 11.375644,32.712784 11.72933,32.382677 12.248067,32.382677"
         style="font-size:5.89474726px;font-style:normal;font-weight:normal;text-align:center;text-anchor:middle;fill:#555753;fill-opacity:1;stroke:none;stroke-width:1px;stroke-linecap:butt;stroke-linejoin:miter;stroke-opacity:1;display:inline;font-family:Nimbus Sans L" />
      <path
         id="text4453"
         d="M 18.730535,35.691354 L 15.936425,35.691354 L 15.936425,36.204197 L 18.194113,36.204197 C 17.197902,37.62483 16.791163,38.497255 16.478742,39.87073 L 17.032848,39.87073 C 17.262743,38.532624 17.787376,37.383145 18.730535,36.127565 L 18.730535,35.691354"
         style="font-size:5.89474726px;font-style:normal;font-weight:normal;text-align:center;text-anchor:middle;fill:#555753;fill-opacity:1;stroke:none;stroke-width:1px;stroke-linecap:butt;stroke-linejoin:miter;stroke-opacity:1;display:inline;font-family:Nimbus Sans L" />
      <path
         id="text4457"
         d="M 26.296845,38.911288 C 26.196634,38.227498 25.748632,37.82076 25.112,37.82076 C 24.65221,37.82076 24.239577,38.044761 23.991998,38.41613 C 23.73263,38.822867 23.614734,39.335711 23.614734,40.096133 C 23.614734,40.797607 23.72084,41.245609 23.968419,41.616977 C 24.19242,41.952978 24.557895,42.135715 25.017684,42.135715 C 25.813474,42.135715 26.385266,41.54624 26.385266,40.726871 C 26.385266,39.948765 25.854738,39.400552 25.106106,39.400552 C 24.693474,39.400552 24.369262,39.559711 24.145262,39.866237 C 24.151156,38.846447 24.481263,38.28055 25.076632,38.28055 C 25.442106,38.28055 25.69558,38.510446 25.778107,38.911288 L 26.296845,38.911288 M 25.041263,39.860343 C 25.542316,39.860343 25.854738,40.208133 25.854738,40.768134 C 25.854738,41.292766 25.501053,41.675925 25.023579,41.675925 C 24.54021,41.675925 24.174735,41.275082 24.174735,40.73866 C 24.174735,40.219923 24.528421,39.860343 25.041263,39.860343"
         style="font-size:5.89474726px;font-style:normal;font-weight:normal;text-align:center;text-anchor:middle;fill:#555753;fill-opacity:1;stroke:none;stroke-width:1px;stroke-linecap:butt;stroke-linejoin:miter;stroke-opacity:1;display:inline;font-family:Nimbus Sans L" />
      <path
         id="text4461"
         d="M 33.602455,35.88379 L 31.444977,35.88379 L 31.132555,38.159163 L 31.61003,38.159163 C 31.851714,37.870321 32.052136,37.77011 32.376347,37.77011 C 32.936348,37.77011 33.290033,38.153269 33.290033,38.772217 C 33.290033,39.37348 32.942242,39.738955 32.376347,39.738955 C 31.922452,39.738955 31.645398,39.509059 31.521609,39.03748 L 31.002871,39.03748 C 31.073608,39.379375 31.132556,39.544429 31.256345,39.697692 C 31.492135,40.016008 31.916557,40.198745 32.388137,40.198745 C 33.231085,40.198745 33.82056,39.585691 33.82056,38.70148 C 33.82056,37.876216 33.272348,37.310319 32.470663,37.310319 C 32.175926,37.310319 31.940136,37.386951 31.698451,37.563793 L 31.863504,36.396633 L 33.602455,36.396633 L 33.602455,35.88379"
         style="font-size:5.89474726px;font-style:normal;font-weight:normal;text-align:center;text-anchor:middle;fill:#555753;fill-opacity:1;stroke:none;stroke-width:1px;stroke-linecap:butt;stroke-linejoin:miter;stroke-opacity:1;display:inline;font-family:Nimbus Sans L" />
      <path
         id="text4465"
         d="M 38.288591,33.62013 L 38.288591,34.622237 L 38.807329,34.622237 L 38.807329,33.62013 L 39.426278,33.62013 L 39.426278,33.154445 L 38.807329,33.154445 L 38.807329,30.442861 L 38.424171,30.442861 L 36.526062,33.071918 L 36.526062,33.62013 L 38.288591,33.62013 M 38.288591,33.154445 L 36.979958,33.154445 L 38.288591,31.327073 L 38.288591,33.154445"
         style="font-size:5.89474726px;font-style:normal;font-weight:normal;text-align:center;text-anchor:middle;fill:#555753;fill-opacity:1;stroke:none;stroke-width:1px;stroke-linecap:butt;stroke-linejoin:miter;stroke-opacity:1;display:inline;font-family:Nimbus Sans L" />
      <path
         id="text4469"
         d="M 39.674726,25.214253 L 39.739568,25.214253 L 39.957674,25.208358 C 40.529464,25.208358 40.824202,25.467727 40.824202,25.96878 C 40.824202,26.493412 40.49999,26.805834 39.957674,26.805834 C 39.391779,26.805834 39.114725,26.522886 39.079356,25.915728 L 38.560619,25.915728 C 38.584198,26.251728 38.643145,26.469834 38.743356,26.658466 C 38.955566,27.059308 39.3682,27.265625 39.939989,27.265625 C 40.800622,27.265625 41.354729,26.752781 41.354729,25.962886 C 41.354729,25.432359 41.148412,25.137621 40.647359,24.966673 C 41.036412,24.81341 41.230939,24.518672 41.230939,24.100145 C 41.230939,23.380987 40.753464,22.95067 39.957674,22.95067 C 39.114726,22.95067 38.666724,23.410461 38.64904,24.300567 L 39.167778,24.300567 C 39.173672,24.047093 39.197251,23.905619 39.262094,23.775934 C 39.379988,23.546039 39.639358,23.404565 39.963568,23.404565 C 40.423358,23.404565 40.700412,23.675724 40.700412,24.11783 C 40.700412,24.412567 40.594306,24.58941 40.364411,24.683725 C 40.222937,24.742673 40.0402,24.766252 39.674726,24.772147 L 39.674726,25.214253"
         style="font-size:5.89474726px;font-style:normal;font-weight:normal;text-align:center;text-anchor:middle;fill:#555753;fill-opacity:1;stroke:none;stroke-width:1px;stroke-linecap:butt;stroke-linejoin:miter;stroke-opacity:1;display:inline;font-family:Nimbus Sans L" />
      <path
         id="text4473"
         d="M 39.352593,19.045902 L 37.153852,19.045902 C 37.206905,18.704007 37.395538,18.485901 37.90838,18.185269 L 38.497855,17.866953 C 39.081434,17.548636 39.382067,17.118319 39.382067,16.605477 C 39.382067,16.257687 39.240593,15.933475 38.993014,15.709475 C 38.745434,15.485475 38.438907,15.379369 38.043959,15.379369 C 37.513433,15.379369 37.118484,15.568001 36.888589,15.921686 C 36.74122,16.145686 36.676378,16.405056 36.664588,16.829477 L 37.183326,16.829477 C 37.20101,16.546529 37.236379,16.375581 37.307116,16.240002 C 37.442695,15.986528 37.713854,15.833265 38.026275,15.833265 C 38.497854,15.833265 38.85154,16.169266 38.85154,16.617266 C 38.85154,16.947372 38.657013,17.23032 38.285644,17.442531 L 37.743327,17.749058 C 36.870905,18.244216 36.61743,18.639165 36.570272,19.558745 L 39.352593,19.558745 L 39.352593,19.045902"
         style="font-size:5.89474726px;font-style:normal;font-weight:normal;text-align:center;text-anchor:middle;fill:#555753;fill-opacity:1;stroke:none;stroke-width:1px;stroke-linecap:butt;stroke-linejoin:miter;stroke-opacity:1;display:inline;font-family:Nimbus Sans L" />
      <path
         id="text4477"
         d="M 32.615084,11.132164 L 32.615084,14.109011 L 33.133822,14.109011 L 33.133822,9.929635 L 32.791927,9.929635 C 32.60919,10.572162 32.491294,10.660584 31.689609,10.760795 L 31.689609,11.132164 L 32.615084,11.132164"
         style="font-size:5.89474726px;font-style:normal;font-weight:normal;text-align:center;text-anchor:middle;fill:#555753;fill-opacity:1;stroke:none;stroke-width:1px;stroke-linecap:butt;stroke-linejoin:miter;stroke-opacity:1;display:inline;font-family:Nimbus Sans L" />
    </g>
    <path
       sodipodi:type="arc"
       style="fill:#999c9c;fill-opacity:1;stroke:none;stroke-width:2;stroke-miterlimit:4;stroke-dasharray:none;stroke-opacity:1"
       id="path4423"
       sodipodi:cx="119.38776"
       sodipodi:cy="118.2449"
       sodipodi:rx="11.22449"
       sodipodi:ry="11.22449"
       d="M 130.61225 118.2449 A 11.22449 11.22449 0 1 1  108.16327,118.2449 A 11.22449 11.22449 0 1 1  130.61225 118.2449 z"
       transform="matrix(0.162679,0,0,0.162679,5.578045,5.763981)" />
  </g>
</svg>
