<?xml version="1.0" encoding="UTF-8" standalone="no"?>
<svg
   xmlns:dc="http://purl.org/dc/elements/1.1/"
   xmlns:cc="http://creativecommons.org/ns#"
   xmlns:rdf="http://www.w3.org/1999/02/22-rdf-syntax-ns#"
   xmlns:svg="http://www.w3.org/2000/svg"
   xmlns="http://www.w3.org/2000/svg"
   xmlns:xlink="http://www.w3.org/1999/xlink"
   xmlns:sodipodi="http://sodipodi.sourceforge.net/DTD/sodipodi-0.dtd"
   xmlns:inkscape="http://www.inkscape.org/namespaces/inkscape"
   sodipodi:docname="mate-panel-launcher.svg"
   version="1.0"
   inkscape:version="1.0beta2 (unknown)"
   sodipodi:version="0.32"
   id="svg2"
   height="48"
   width="48">
  <defs
     id="defs4">
    <linearGradient
       id="linearGradient1985">
      <stop
         style="stop-color:#888a85;stop-opacity:1"
         offset="0"
         id="stop1987" />
      <stop
         style="stop-color:#babdb6;stop-opacity:1"
         offset="1"
         id="stop1989" />
    </linearGradient>
    <linearGradient
       id="linearGradient3281">
      <stop
         id="stop3289"
         offset="0"
         style="stop-color:#babdb6;stop-opacity:1;" />
      <stop
         style="stop-color:#878a84;stop-opacity:1;"
         offset="0.09212018"
         id="stop3291" />
      <stop
         id="stop3285"
         offset="0.23513441"
         style="stop-color:#555753;stop-opacity:1;" />
      <stop
         style="stop-color:#6e706c;stop-opacity:1;"
         offset="0.72439361"
         id="stop3293" />
      <stop
         style="stop-color:#888a85;stop-opacity:1"
         offset="1"
         id="stop3287" />
    </linearGradient>
    <linearGradient
       id="linearGradient3228">
      <stop
         id="stop3230"
         offset="0"
         style="stop-color:#2e3436;stop-opacity:1" />
      <stop
         id="stop3232"
         offset="1"
         style="stop-color:#555753;stop-opacity:1;" />
    </linearGradient>
    <linearGradient
       id="linearGradient3212"
       inkscape:collect="always">
      <stop
         id="stop3214"
         offset="0"
         style="stop-color:black;stop-opacity:1;" />
      <stop
         id="stop3216"
         offset="1"
         style="stop-color:black;stop-opacity:0;" />
    </linearGradient>
    <linearGradient
       id="linearGradient3170"
       inkscape:collect="always">
      <stop
         id="stop3172"
         offset="0"
         style="stop-color:black;stop-opacity:1;" />
      <stop
         id="stop3174"
         offset="1"
         style="stop-color:black;stop-opacity:0;" />
    </linearGradient>
    <linearGradient
       id="linearGradient3065">
      <stop
         style="stop-color:#babdb6;stop-opacity:1"
         offset="0"
         id="stop3067" />
      <stop
         id="stop3069"
         offset="0.23705763"
         style="stop-color:white;stop-opacity:1;" />
      <stop
         style="stop-color:#dfe0df;stop-opacity:1;"
         offset="0.68664968"
         id="stop3259" />
      <stop
         style="stop-color:#888a85;stop-opacity:1"
         offset="1"
         id="stop3071" />
    </linearGradient>
    <linearGradient
       id="linearGradient3055">
      <stop
         style="stop-color:#555753;stop-opacity:0"
         offset="0"
         id="stop3057" />
      <stop
         id="stop3059"
         offset="0.10119048"
         style="stop-color:#555753;stop-opacity:1;" />
      <stop
         id="stop3061"
         offset="0.89299887"
         style="stop-color:#555753;stop-opacity:1;" />
      <stop
         style="stop-color:#555753;stop-opacity:0;"
         offset="1"
         id="stop3063" />
    </linearGradient>
    <linearGradient
       id="linearGradient2914">
      <stop
         id="stop2916"
         offset="0"
         style="stop-color:#888a85;stop-opacity:1" />
      <stop
         style="stop-color:white;stop-opacity:1;"
         offset="0.26190478"
         id="stop2922" />
      <stop
         id="stop3257"
         offset="0.47278914"
         style="stop-color:white;stop-opacity:1;" />
      <stop
         id="stop2918"
         offset="1"
         style="stop-color:#555753;stop-opacity:1" />
    </linearGradient>
    <linearGradient
       id="linearGradient2844">
      <stop
         id="stop2846"
         offset="0"
         style="stop-color:#d3d7cf;stop-opacity:1;" />
      <stop
         id="stop2848"
         offset="1"
         style="stop-color:#babdb6;stop-opacity:1" />
    </linearGradient>
    <linearGradient
       id="linearGradient2827">
      <stop
         id="stop2829"
         offset="0"
         style="stop-color:white;stop-opacity:1" />
      <stop
         id="stop2831"
         offset="1"
         style="stop-color:#eeeeec;stop-opacity:1;" />
    </linearGradient>
    <radialGradient
       gradientUnits="userSpaceOnUse"
       gradientTransform="matrix(1.910968,0,0,0.825953,-11.9594,3.411152)"
       r="13.875"
       fy="14.030881"
       fx="21.315046"
       cy="14.030881"
       cx="21.315046"
       id="radialGradient2833"
       xlink:href="#linearGradient2827"
       inkscape:collect="always" />
    <linearGradient
       gradientUnits="userSpaceOnUse"
       y2="18"
       x2="39"
       y1="18"
       x1="9"
       id="linearGradient2850"
       xlink:href="#linearGradient2844"
       inkscape:collect="always" />
    <linearGradient
       gradientUnits="userSpaceOnUse"
       y2="23.781593"
       x2="30.604265"
       y1="23.781593"
       x1="17.984695"
       id="linearGradient2920"
       xlink:href="#linearGradient3065"
       inkscape:collect="always" />
    <linearGradient
       gradientUnits="userSpaceOnUse"
       y2="25.991301"
       x2="31.000006"
       y1="25.991301"
       x1="18.031223"
       id="linearGradient2935"
       xlink:href="#linearGradient3281"
       inkscape:collect="always" />
    <linearGradient
       y2="23.781593"
       x2="30.604265"
       y1="23.781593"
       x1="16.671698"
       gradientUnits="userSpaceOnUse"
       id="linearGradient2939"
       xlink:href="#linearGradient2914"
       inkscape:collect="always" />
    <linearGradient
       gradientUnits="userSpaceOnUse"
       y2="22.46875"
       x2="19.34375"
       y1="18.59375"
       x1="17.875"
       id="linearGradient3037"
       xlink:href="#linearGradient3055"
       inkscape:collect="always" />
    <linearGradient
       gradientUnits="userSpaceOnUse"
       y2="26.999985"
       x2="19.006897"
       y1="23.55805"
       x1="17.237436"
       id="linearGradient3053"
       xlink:href="#linearGradient3055"
       inkscape:collect="always" />
    <linearGradient
       gradientUnits="userSpaceOnUse"
       y2="31.062485"
       x2="22.15625"
       y1="28.187485"
       x1="17.812492"
       id="linearGradient3079"
       xlink:href="#linearGradient3055"
       inkscape:collect="always" />
    <linearGradient
       gradientUnits="userSpaceOnUse"
       y2="11.231415"
       x2="13.4375"
       y1="20"
       x1="15.25"
       id="linearGradient3200"
       xlink:href="#linearGradient1985"
       inkscape:collect="always" />
    <radialGradient
       r="14.25736"
       fy="14.5"
       fx="22.742641"
       cy="14.5"
       cx="22.742641"
       gradientTransform="matrix(1,0,0,0.385766,0,8.906398)"
       gradientUnits="userSpaceOnUse"
       id="radialGradient3222"
       xlink:href="#linearGradient3212"
       inkscape:collect="always" />
    <radialGradient
       r="14.25736"
       fy="14.5"
       fx="22.742641"
       cy="14.5"
       cx="22.742641"
       gradientTransform="matrix(1,0,0,0.385766,0,8.906398)"
       gradientUnits="userSpaceOnUse"
       id="radialGradient3226"
       xlink:href="#linearGradient3212"
       inkscape:collect="always" />
    <linearGradient
       gradientUnits="userSpaceOnUse"
       y2="25.1875"
       x2="30.499475"
       y1="25.1875"
       x1="45.375"
       id="linearGradient3234"
       xlink:href="#linearGradient3228"
       inkscape:collect="always" />
    <linearGradient
       y2="25.1875"
       x2="30.499475"
       y1="25.1875"
       x1="45.375"
       gradientUnits="userSpaceOnUse"
       id="linearGradient3236"
       xlink:href="#linearGradient3228"
       inkscape:collect="always" />
    <linearGradient
       y2="25.1875"
       x2="30.499475"
       y1="25.1875"
       x1="45.375"
       gradientUnits="userSpaceOnUse"
       id="linearGradient3238"
       xlink:href="#linearGradient3228"
       inkscape:collect="always" />
    <linearGradient
       y2="25.1875"
       x2="30.499475"
       y1="25.1875"
       x1="45.375"
       gradientUnits="userSpaceOnUse"
       id="linearGradient3240"
       xlink:href="#linearGradient3228"
       inkscape:collect="always" />
    <linearGradient
       y2="25.1875"
       x2="30.499475"
       y1="25.1875"
       x1="45.375"
       gradientUnits="userSpaceOnUse"
       id="linearGradient3242"
       xlink:href="#linearGradient3228"
       inkscape:collect="always" />
    <linearGradient
       y2="25.1875"
       x2="30.499475"
       y1="25.1875"
       x1="45.375"
       gradientUnits="userSpaceOnUse"
       id="linearGradient3244"
       xlink:href="#linearGradient3228"
       inkscape:collect="always" />
    <linearGradient
       y2="25.1875"
       x2="30.499475"
       y1="25.1875"
       x1="45.375"
       gradientUnits="userSpaceOnUse"
       id="linearGradient3246"
       xlink:href="#linearGradient3228"
       inkscape:collect="always" />
    <linearGradient
       y2="25.1875"
       x2="30.499475"
       y1="25.1875"
       x1="45.375"
       gradientUnits="userSpaceOnUse"
       id="linearGradient3248"
       xlink:href="#linearGradient3228"
       inkscape:collect="always" />
    <linearGradient
       y2="25.1875"
       x2="30.499475"
       y1="25.1875"
       x1="45.375"
       gradientUnits="userSpaceOnUse"
       id="linearGradient3250"
       xlink:href="#linearGradient3228"
       inkscape:collect="always" />
    <linearGradient
       y2="25.1875"
       x2="30.499475"
       y1="25.1875"
       x1="45.375"
       gradientUnits="userSpaceOnUse"
       id="linearGradient3252"
       xlink:href="#linearGradient3228"
       inkscape:collect="always" />
    <linearGradient
       y2="25.616301"
       x2="26.562506"
       y1="26.241301"
       x1="18.093723"
       gradientUnits="userSpaceOnUse"
       id="linearGradient3261"
       xlink:href="#linearGradient3281"
       inkscape:collect="always" />
    <linearGradient
       y2="20.053801"
       x2="28.125006"
       y1="22.428801"
       x1="18.343723"
       gradientUnits="userSpaceOnUse"
       id="linearGradient3263"
       xlink:href="#linearGradient3281"
       inkscape:collect="always" />
    <linearGradient
       y2="31.303801"
       x2="26.250006"
       y1="31.928801"
       x1="18.625"
       gradientUnits="userSpaceOnUse"
       id="linearGradient3265"
       xlink:href="#linearGradient3281"
       inkscape:collect="always" />
    <radialGradient
       r="8.0002031"
       fy="20.616692"
       fx="42.187771"
       cy="20.616692"
       cx="42.187771"
       gradientTransform="matrix(-6.064651e-6,0.789996,-2.56077,0,76.84922,-13.69235)"
       gradientUnits="userSpaceOnUse"
       id="radialGradient3269"
       xlink:href="#linearGradient3170"
       inkscape:collect="always" />
  </defs>
  <sodipodi:namedview
     inkscape:window-maximized="0"
     inkscape:document-rotation="0"
     showborder="false"
     inkscape:guide-bbox="true"
     showguides="true"
     inkscape:grid-points="true"
     inkscape:window-y="270"
     inkscape:window-x="139"
     inkscape:window-height="622"
     inkscape:window-width="1003"
     showgrid="false"
     inkscape:showpageshadow="false"
     height="48px"
     width="48px"
     inkscape:current-layer="layer2"
     inkscape:document-units="px"
     inkscape:cy="42.189322"
     inkscape:cx="26.012016"
     inkscape:zoom="1"
     inkscape:pageshadow="2"
     inkscape:pageopacity="0.0"
     borderopacity="1.0"
     bordercolor="#666666"
     pagecolor="#ffffff"
     id="base">
    <inkscape:grid
       empspacing="2"
       empopacity="0.38"
       opacity="0.15"
       empcolor="#3f3fff"
       color="#3f3fff"
       spacingy="0.5"
       spacingx="0.5"
       originy="0"
       originx="0"
       type="xygrid"
       id="GridFromPre046Settings" />
  </sodipodi:namedview>
  <metadata
     id="metadata7">
    <rdf:RDF>
      <cc:Work
         rdf:about="">
        <dc:format>image/svg+xml</dc:format>
        <dc:type
           rdf:resource="http://purl.org/dc/dcmitype/StillImage" />
        <cc:license
           rdf:resource="http://creativecommons.org/licenses/GPL/2.0/" />
        <dc:creator>
          <cc:Agent>
            <dc:title>Lapo Calamandrei</dc:title>
          </cc:Agent>
        </dc:creator>
        <dc:title>Launcher</dc:title>
        <dc:contributor>
          <cc:Agent>
            <dc:title>Jakub Steiner</dc:title>
          </cc:Agent>
        </dc:contributor>
      </cc:Work>
      <cc:License
         rdf:about="http://creativecommons.org/licenses/GPL/2.0/">
        <cc:permits
           rdf:resource="http://web.resource.org/cc/Reproduction" />
        <cc:permits
           rdf:resource="http://web.resource.org/cc/Distribution" />
        <cc:requires
           rdf:resource="http://web.resource.org/cc/Notice" />
        <cc:permits
           rdf:resource="http://web.resource.org/cc/DerivativeWorks" />
        <cc:requires
           rdf:resource="http://web.resource.org/cc/ShareAlike" />
        <cc:requires
           rdf:resource="http://web.resource.org/cc/SourceCode" />
      </cc:License>
    </rdf:RDF>
  </metadata>
  <g
     style="display:inline"
     inkscape:label="shadow"
     id="layer4"
     inkscape:groupmode="layer">
    <path
       transform="matrix(1.252416,0,0,1.11601,-4.483258,19.31786)"
       d="M 37.000002 14.5 A 14.25736 5.5 0 1 1  8.485281,14.5 A 14.25736 5.5 0 1 1  37.000002 14.5 z"
       sodipodi:ry="5.5"
       sodipodi:rx="14.25736"
       sodipodi:cy="14.5"
       sodipodi:cx="22.742641"
       id="path3202"
       style="opacity:0.2;fill:url(#radialGradient3222);fill-opacity:1;stroke:none;stroke-width:1;stroke-linecap:round;stroke-linejoin:miter;stroke-miterlimit:4;stroke-dasharray:none;stroke-opacity:1;display:inline"
       sodipodi:type="arc" />
    <path
       transform="matrix(0.717111,0,0,0.639006,7.691004,26.23441)"
       d="M 37.000002 14.5 A 14.25736 5.5 0 1 1  8.485281,14.5 A 14.25736 5.5 0 1 1  37.000002 14.5 z"
       sodipodi:ry="5.5"
       sodipodi:rx="14.25736"
       sodipodi:cy="14.5"
       sodipodi:cx="22.742641"
       id="path3224"
       style="opacity:0.3;fill:url(#radialGradient3226);fill-opacity:1;stroke:none;stroke-width:1;stroke-linecap:round;stroke-linejoin:miter;stroke-miterlimit:4;stroke-dasharray:none;stroke-opacity:1;display:inline"
       sodipodi:type="arc" />
  </g>
  <g
     style="display:inline"
     inkscape:label="spring"
     id="layer3"
     inkscape:groupmode="layer">
    <g
       transform="translate(-14,0)"
       id="g3097"
       style="fill-opacity:1;stroke:url(#linearGradient3234);display:inline">
      <g
         id="g3099"
         transform="translate(-2,0)"
         style="fill-opacity:1;stroke:url(#linearGradient3236)">
        <path
           sodipodi:nodetypes="csc"
           id="path3101"
           d="M 33.5,27 C 33.5,25 36,23.5 40.5,23.5 C 44.157,23.5 46.5,23.948 46.5,24.5"
           style="fill:none;fill-opacity:1;stroke:url(#linearGradient3238);stroke-width:3;stroke-linecap:round;stroke-linejoin:miter;stroke-miterlimit:4;stroke-dasharray:none;stroke-opacity:1;display:inline" />
        <path
           sodipodi:nodetypes="csc"
           id="path3103"
           d="M 33.5,22.5 C 33.5,20.5 36,19.5 40.5,19.5 C 44.157,19.5 46.5,19.948 46.5,20.5"
           style="fill:none;fill-opacity:1;stroke:url(#linearGradient3240);stroke-width:3;stroke-linecap:round;stroke-linejoin:miter;stroke-miterlimit:4;stroke-dasharray:none;stroke-opacity:1;display:inline" />
        <path
           sodipodi:nodetypes="csc"
           id="path3105"
           d="M 34.5,32.5 C 34.5,29.5 36.5,27.5 40.961541,27.5 C 44.337233,27.5 46.500003,28 46.500003,29"
           style="fill:none;fill-opacity:1;stroke:url(#linearGradient3242);stroke-width:3;stroke-linecap:round;stroke-linejoin:miter;stroke-miterlimit:4;stroke-dasharray:none;stroke-opacity:1;display:inline" />
      </g>
      <g
         id="g3107"
         transform="translate(-2,0)"
         style="fill-opacity:1;stroke:url(#linearGradient3244)">
        <path
           sodipodi:nodetypes="css"
           id="path3109"
           d="M 46.499985,20.5 C 46.499985,21.5 42.321416,21.5 40.928559,21.499984 C 36.827989,21.499937 33.499991,19.931985 33.499991,17.999986"
           style="fill:none;fill-opacity:1;stroke:url(#linearGradient3246);stroke-width:3;stroke-linecap:round;stroke-linejoin:miter;stroke-miterlimit:4;stroke-dasharray:none;stroke-opacity:1;display:inline" />
        <path
           sodipodi:nodetypes="css"
           id="path3111"
           d="M 46.499985,24.5 C 46.499985,25.5 42.321416,25.5 40.928559,25.499984 C 36.827989,25.499937 33.5,24.431999 33.5,22.5"
           style="fill:none;fill-opacity:1;stroke:url(#linearGradient3248);stroke-width:3;stroke-linecap:round;stroke-linejoin:miter;stroke-miterlimit:4;stroke-dasharray:none;stroke-opacity:1;display:inline" />
        <path
           sodipodi:nodetypes="css"
           id="path3113"
           d="M 46.5,29 C 46.5,30.5 42.321416,30.5 40.928559,30.499984 C 36.827989,30.499937 33.499991,28.931985 33.499991,26.999986"
           style="fill:none;fill-opacity:1;stroke:url(#linearGradient3250);stroke-width:3;stroke-linecap:round;stroke-linejoin:miter;stroke-miterlimit:4;stroke-dasharray:none;stroke-opacity:1;display:inline" />
        <path
           sodipodi:nodetypes="cs"
           id="path3115"
           d="M 34.5,32.5 C 34.5,35.5 37,36.5 40.785704,36.499984 L 41.5,36.5"
           style="fill:none;fill-opacity:1;stroke:url(#linearGradient3252);stroke-width:3;stroke-linecap:round;stroke-linejoin:miter;stroke-miterlimit:4;stroke-dasharray:none;stroke-opacity:1;display:inline" />
      </g>
    </g>
    <g
       style="fill-opacity:1;stroke:url(#linearGradient2935)"
       id="g2924">
      <path
         style="opacity:1;fill:none;fill-opacity:1;stroke:url(#linearGradient3261);stroke-width:0.99999988;stroke-linecap:round;stroke-linejoin:miter;stroke-miterlimit:4;stroke-opacity:1;display:inline"
         d="M 17.5,27 C 17.5,25 20,23.5 24.5,23.5 C 28.157,23.5 30.5,23.948 30.5,24.5"
         id="path2857"
         sodipodi:nodetypes="csc" />
      <path
         style="opacity:1;fill:none;fill-opacity:1;stroke:url(#linearGradient3263);stroke-width:0.99999988;stroke-linecap:round;stroke-linejoin:miter;stroke-miterlimit:4;stroke-opacity:1;display:inline"
         d="M 17.5,22.5 C 17.5,20.5 20,19.5 24.5,19.5 C 28.157,19.5 30.5,19.948 30.5,20.5"
         id="path2871"
         sodipodi:nodetypes="csc" />
      <path
         style="opacity:1;fill:none;fill-opacity:1;stroke:url(#linearGradient3265);stroke-width:1;stroke-linecap:round;stroke-linejoin:miter;stroke-miterlimit:4;stroke-dasharray:none;stroke-opacity:1;display:inline"
         d="M 18.5,32.5 C 18.5,29.5 20.5,27.5 24.961541,27.5 C 28.337233,27.5 30.500003,28 30.500003,29"
         id="path2873"
         sodipodi:nodetypes="csc" />
    </g>
    <g
       style="opacity:0.8"
       id="g3081">
      <path
         style="fill:none;fill-opacity:1;stroke:url(#linearGradient3079);stroke-width:3;stroke-linecap:round;stroke-linejoin:miter;stroke-miterlimit:4;stroke-dasharray:none;stroke-opacity:1;display:inline"
         d="M 30.5,29 C 30.5,30.5 26.321416,30.5 24.928559,30.499984 C 20.827989,30.499937 17.499991,28.931985 17.499991,26.999986"
         id="path3023"
         sodipodi:nodetypes="css" />
      <path
         style="fill:none;fill-opacity:1;stroke:url(#linearGradient3053);stroke-width:3;stroke-linecap:round;stroke-linejoin:miter;stroke-miterlimit:4;stroke-dasharray:none;stroke-opacity:1;display:inline"
         d="M 30.499985,24.5 C 30.499985,25.5 26.321416,25.5 24.928559,25.499984 C 20.827989,25.499937 17.5,24.431999 17.5,22.5"
         id="path3021"
         sodipodi:nodetypes="css" />
      <path
         style="fill:none;fill-opacity:1;stroke:url(#linearGradient3037);stroke-width:3;stroke-linecap:round;stroke-linejoin:miter;stroke-miterlimit:4;stroke-dasharray:none;stroke-opacity:1;display:inline"
         d="M 30.499985,20.5 C 30.499985,21.5 26.321416,21.5 24.928559,21.499984 C 20.827989,21.499937 17.499991,19.931985 17.499991,17.999986"
         id="path3019"
         sodipodi:nodetypes="css" />
    </g>
    <g
       style="fill-opacity:1;stroke:url(#linearGradient2920)"
       id="g2908">
      <path
         style="opacity:1;fill:none;fill-opacity:1;stroke:url(#linearGradient2920);stroke-width:0.99999952;stroke-linecap:round;stroke-linejoin:miter;stroke-miterlimit:4;stroke-opacity:1;display:inline"
         d="M 30.499985,20.5 C 30.499985,21.5 26.321416,21.5 24.928559,21.499984 C 20.827989,21.499937 17.499991,19.931985 17.499991,17.999986"
         id="path2869"
         sodipodi:nodetypes="css" />
      <path
         style="opacity:1;fill:none;fill-opacity:1;stroke:url(#linearGradient2920);stroke-width:0.99999952;stroke-linecap:round;stroke-linejoin:miter;stroke-miterlimit:4;stroke-opacity:1;display:inline"
         d="M 30.499985,24.5 C 30.499985,25.5 26.321416,25.5 24.928559,25.499984 C 20.827989,25.499937 17.5,24.431999 17.5,22.5"
         id="path2852"
         sodipodi:nodetypes="css" />
      <path
         style="opacity:1;fill:none;fill-opacity:1;stroke:url(#linearGradient2920);stroke-width:0.99999952;stroke-linecap:round;stroke-linejoin:miter;stroke-miterlimit:4;stroke-opacity:1;display:inline"
         d="M 30.5,29 C 30.5,30.5 26.321416,30.5 24.928559,30.499984 C 20.827989,30.499937 17.499991,28.931985 17.499991,26.999986"
         id="path2867"
         sodipodi:nodetypes="css" />
      <path
         style="opacity:1;fill:none;fill-opacity:1;stroke:url(#linearGradient2939);stroke-width:0.99999952;stroke-linecap:round;stroke-linejoin:miter;stroke-miterlimit:4;stroke-opacity:1;display:inline"
         d="M 18.5,32.5 C 18.5,35.5 21,36.5 24.785704,36.499984 L 25.5,36.5"
         id="path2875"
         sodipodi:nodetypes="cs" />
    </g>
    <path
       id="path2885"
       d="M 17.46875,16.46875 C 16.640281,16.485913 15.982643,17.171535 16,18 C 16,18.881664 16.320508,19.625607 16.84375,20.25 C 16.320151,20.887228 16,21.657449 16,22.5 C 15.998087,22.635238 16.02963,22.778745 16.0625,22.90625 C 16.158376,23.562154 16.43412,24.185857 16.84375,24.65625 C 16.319659,25.334874 16,26.134654 16,27 C 16,27.772652 16.299003,28.426674 16.71875,29 L 32,29 C 32,28.836163 31.975945,28.686296 31.9375,28.53125 C 31.927641,28.500474 31.918016,28.467412 31.90625,28.4375 C 31.742351,27.885083 31.375524,27.400575 31,27.125 C 30.665359,26.879426 30.308761,26.71594 29.9375,26.59375 C 30.063036,26.560281 30.189806,26.541726 30.3125,26.5 C 30.620513,26.395251 30.942476,26.27716 31.28125,26 C 31.535331,25.79213 31.814752,25.416695 31.9375,24.96875 C 31.983084,24.822653 32.001359,24.658748 32,24.5 C 32,24.350107 31.972633,24.194889 31.9375,24.0625 C 31.918996,23.995494 31.902334,23.938222 31.875,23.875 C 31.754658,23.575983 31.567857,23.335194 31.40625,23.1875 C 31.143458,22.947333 30.889955,22.819752 30.65625,22.71875 C 30.492301,22.647895 30.326579,22.581817 30.15625,22.53125 C 30.207235,22.515545 30.262016,22.517168 30.3125,22.5 C 30.620513,22.395251 30.942476,22.27716 31.28125,22 C 31.535331,21.79213 31.814752,21.416695 31.9375,20.96875 C 31.983084,20.822653 32.001359,20.658748 32,20.5 C 32,20.350107 31.972633,20.194889 31.9375,20.0625 C 31.918996,19.995494 31.902334,19.938222 31.875,19.875 C 31.831639,19.767259 31.775177,19.683888 31.71875,19.59375 C 31.618572,19.433724 31.509628,19.281977 31.40625,19.1875 C 31.143458,18.947333 30.889955,18.819752 30.65625,18.71875 C 30.188839,18.516746 29.714461,18.414806 29.125,18.3125 C 27.946079,18.107888 26.389752,18 24.5,18 C 22.515759,18 20.876845,18.193957 19.5,18.625 C 19.126212,18.321771 19,18.068697 19,18 C 19.008564,17.591322 18.851542,17.195293 18.5625,16.90625 C 18.273456,16.617208 17.877428,16.460186 17.46875,16.46875 z M 19.3125,21.9375 C 19.73705,22.121862 20.179594,22.301411 20.65625,22.4375 C 20.192383,22.556166 19.751732,22.707141 19.34375,22.875 C 19.267296,22.82307 19.169197,22.762446 19.125,22.71875 C 18.962512,22.558104 19,22.552359 19,22.5 C 19,22.25 19.043981,22.113426 19.3125,21.9375 z M 19.40625,26.1875 C 19.903173,26.361466 20.440441,26.510718 21,26.625 C 20.403985,26.85067 19.856247,27.147539 19.375,27.5 C 19.106187,27.249692 19,27.060031 19,27 C 19,26.738432 19.072796,26.471169 19.40625,26.1875 z "
       style="opacity:0.41906613;fill:url(#radialGradient3269);fill-opacity:1;stroke:none;stroke-width:3;stroke-linecap:round;stroke-linejoin:miter;stroke-miterlimit:4;stroke-dasharray:none;stroke-opacity:1;display:inline" />
  </g>
  <g
     style="display:inline"
     inkscape:label="platform"
     id="layer2"
     inkscape:groupmode="layer">
    <path
       sodipodi:nodetypes="ccccccc"
       id="rect1880"
       d="M 12.5,9.5 L 35.5,9.5 L 39.5,17 L 39.5,19.5 L 8.5,19.5 L 8.5,17 L 12.5,9.5 z "
       style="opacity:1;fill:white;fill-opacity:1;stroke:url(#linearGradient3200);stroke-width:1;stroke-linecap:round;stroke-linejoin:round;stroke-miterlimit:4;stroke-opacity:1" />
    <rect
       y="17"
       x="9"
       height="2"
       width="30"
       id="rect2768"
       style="opacity:1;fill:url(#linearGradient2850);fill-opacity:1;stroke:none;stroke-width:1;stroke-linecap:round;stroke-linejoin:round;stroke-miterlimit:4;stroke-dasharray:none;stroke-opacity:1" />
    <g
       style="opacity:0.8"
       id="g2835">
      <rect
         style="opacity:1;fill:#ef2929;fill-opacity:1;stroke:none;stroke-width:1;stroke-linecap:round;stroke-linejoin:round;stroke-miterlimit:4;stroke-dasharray:none;stroke-opacity:1"
         id="rect2770"
         width="2"
         height="2"
         x="11"
         y="17" />
      <rect
         style="opacity:1;fill:#ef2929;fill-opacity:1;stroke:none;stroke-width:1;stroke-linecap:round;stroke-linejoin:round;stroke-miterlimit:4;stroke-dasharray:none;stroke-opacity:1;display:inline"
         id="rect2772"
         width="2"
         height="2"
         x="15"
         y="17" />
      <rect
         style="opacity:1;fill:#ef2929;fill-opacity:1;stroke:none;stroke-width:1;stroke-linecap:round;stroke-linejoin:round;stroke-miterlimit:4;stroke-dasharray:none;stroke-opacity:1;display:inline"
         id="rect2774"
         width="2"
         height="2"
         x="23"
         y="17" />
      <rect
         style="opacity:1;fill:#ef2929;fill-opacity:1;stroke:none;stroke-width:1;stroke-linecap:round;stroke-linejoin:round;stroke-miterlimit:4;stroke-dasharray:none;stroke-opacity:1;display:inline"
         id="rect2776"
         width="2"
         height="2"
         x="19"
         y="17" />
      <rect
         style="opacity:1;fill:#ef2929;fill-opacity:1;stroke:none;stroke-width:1;stroke-linecap:round;stroke-linejoin:round;stroke-miterlimit:4;stroke-dasharray:none;stroke-opacity:1;display:inline"
         id="rect2778"
         width="2"
         height="2"
         x="27"
         y="17" />
      <rect
         style="opacity:1;fill:#ef2929;fill-opacity:1;stroke:none;stroke-width:1;stroke-linecap:round;stroke-linejoin:round;stroke-miterlimit:4;stroke-dasharray:none;stroke-opacity:1;display:inline"
         id="rect2780"
         width="2"
         height="2"
         x="31"
         y="17" />
      <rect
         style="opacity:1;fill:#ef2929;fill-opacity:1;stroke:none;stroke-width:1;stroke-linecap:round;stroke-linejoin:round;stroke-miterlimit:4;stroke-dasharray:none;stroke-opacity:1;display:inline"
         id="rect2782"
         width="2"
         height="2"
         x="35"
         y="17" />
    </g>
    <path
       id="path2805"
       d="M 14.0625,10 L 11.375,12.6875 L 9.0625,17 L 16.0625,10 L 14.0625,10 z M 18,10 L 11,17 L 13,17 L 20,10 L 18,10 z M 22,10 L 15,17 L 17,17 L 24,10 L 22,10 z M 26,10 L 19,17 L 21,17 L 28,10 L 26,10 z M 30,10 L 23,17 L 25,17 L 32,10 L 30,10 z M 34.0625,10 L 27.0625,17 L 29.0625,17 L 35.5,10.5625 L 35.1875,10 L 34.0625,10 z M 36.1875,11.875 L 31.0625,17 L 33.0625,17 L 36.875,13.1875 L 36.1875,11.875 z M 37.59375,14.46875 L 35.0625,17 L 37.0625,17 L 38.28125,15.78125 L 37.59375,14.46875 z "
       style="opacity:0.5;fill:#ef2929;fill-opacity:1;stroke:none;stroke-width:1;stroke-linecap:round;stroke-linejoin:round;stroke-miterlimit:4;stroke-opacity:1;display:inline" />
    <path
       id="path2810"
       d="M 12.25,11 L 10.125,15 L 37.875,15 L 35.75,11 L 12.25,11 z "
       style="opacity:1;fill:url(#radialGradient2833);fill-opacity:1;stroke:none;stroke-width:1;stroke-linecap:round;stroke-linejoin:round;stroke-miterlimit:4;stroke-opacity:1;display:inline" />
    <path
       d="M 13.09375,10.5 L 9.5,17.25 L 9.5,18.5 L 38.5,18.5 L 38.5,17.25 L 34.90625,10.5 L 13.09375,10.5 z "
       id="path2817"
       style="opacity:0.5;fill:none;fill-opacity:1;stroke:white;stroke-width:1;stroke-linecap:round;stroke-linejoin:miter;stroke-miterlimit:4;stroke-opacity:1;display:inline"
       inkscape:original="M 12.5 9.5 L 8.5 17 L 8.5 19.5 L 39.5 19.5 L 39.5 17 L 35.5 9.5 L 12.5 9.5 z "
       inkscape:radius="-1.0054175"
       sodipodi:type="inkscape:offset" />
    <path
       sodipodi:nodetypes="cccc"
       id="path2868"
       d="M 38.49718,10.501127 L 37.310514,8.3842603 C 37.007073,7.8351458 36.407932,7.4966591 35.756546,7.4999995 L 33.496229,7.4999995"
       style="opacity:1;fill:none;fill-opacity:1;stroke:#729fcf;stroke-width:0.99775636;stroke-linecap:round;stroke-linejoin:round;stroke-miterlimit:4;stroke-opacity:1;display:inline" />
    <path
       sodipodi:nodetypes="cccc"
       id="path2872"
       d="M 39.001314,7.5013112 L 38.182154,6.2504915 C 37.876164,5.7861072 37.278835,5.499985 36.628574,5.4999997 L 35.498697,5.4999997"
       style="opacity:1;fill:none;fill-opacity:1;stroke:#729fcf;stroke-width:0.99737924;stroke-linecap:round;stroke-linejoin:round;stroke-miterlimit:4;stroke-opacity:1;display:inline" />
    <path
       sodipodi:nodetypes="cccc"
       id="path2931"
       d="M 14.50111,7.4999995 L 12.241994,7.4999995 C 11.590954,7.496659 10.992129,7.8351457 10.688851,8.3842603 L 9.5028143,10.501127"
       style="opacity:1;fill:none;fill-opacity:1;stroke:#729fcf;stroke-width:0.99775618;stroke-linecap:round;stroke-linejoin:round;stroke-miterlimit:4;stroke-opacity:1;display:inline" />
    <path
       sodipodi:nodetypes="cccc"
       id="path2933"
       d="M 12.501306,5.5000034 L 11.37143,5.5000034 C 10.721169,5.4999886 10.12384,5.7861108 9.8178502,6.2504952 L 8.9986899,7.5013149"
       style="opacity:1;fill:none;fill-opacity:1;stroke:#729fcf;stroke-width:0.9973793;stroke-linecap:round;stroke-linejoin:round;stroke-miterlimit:4;stroke-opacity:1;display:inline" />
  </g>
</svg>
